<svg id="Capa_1" data-name="Capa 1" xmlns="http://www.w3.org/2000/svg" viewBox="0 0 82 63.07"><defs><style>.cls-1{fill:#fff;}.cls-2{fill:#102b42;}.cls-3{fill:#cfb47c;}</style></defs><path class="cls-1" d="M90.35,58.77h-82v.33h82v-.33Z" transform="translate(-8.35 -1.66)"/><path class="cls-1" d="M30.74,60.39a.27.27,0,0,0,.14-.24.25.25,0,0,0-.1-.2.26.26,0,0,0-.21-.07.3.3,0,0,0-.23.14l-.47.73.17.16.7-.52Z" transform="translate(-8.35 -1.66)"/><path class="cls-1" d="M10.26,63.59l-1-2.4H8.35v.27h.08l.15,0a.52.52,0,0,1,.11.1l.09.14.08.18L10,64.67h.21l1.42-3.48h-.44l-1,2.4Z" transform="translate(-8.35 -1.66)"/><path class="cls-1" d="M15,61.62a1.77,1.77,0,0,0-.53-.36,1.72,1.72,0,0,0-1.3,0,1.77,1.77,0,0,0-.53.36,2.12,2.12,0,0,0-.35.56,2.13,2.13,0,0,0,0,1.41,1.92,1.92,0,0,0,.35.55,1.64,1.64,0,0,0,.53.37,1.69,1.69,0,0,0,1.3,0,1.64,1.64,0,0,0,.53-.37,1.79,1.79,0,0,0,.48-1.26,1.78,1.78,0,0,0-.13-.7A1.71,1.71,0,0,0,15,61.62Zm-1.92,2.31a1.41,1.41,0,0,1-.23-.44,2.25,2.25,0,0,1-.08-.61,2.18,2.18,0,0,1,.08-.6,1.36,1.36,0,0,1,.23-.45,1,1,0,0,1,.33-.26.91.91,0,0,1,.41-.09.9.9,0,0,1,.4.09.93.93,0,0,1,.33.26,1.2,1.2,0,0,1,.23.45,1.86,1.86,0,0,1,.08.6,2.25,2.25,0,0,1-.08.61,1.23,1.23,0,0,1-.23.44.75.75,0,0,1-.33.26,1,1,0,0,1-.81,0,.88.88,0,0,1-.33-.26Z" transform="translate(-8.35 -1.66)"/><path class="cls-1" d="M21.22,61.12,19.69,64.6h1v-.28h-.1l-.12,0-.1,0-.05,0s0,0,0,0a.31.31,0,0,1,0-.12,1.62,1.62,0,0,1,.06-.17l.17-.39h1.12l.43,1.08h.63l-1.37-3.48Zm-.44,2,.42-1,.4,1Z" transform="translate(-8.35 -1.66)"/><path class="cls-1" d="M27.64,61.19H27V64.6h.65Z" transform="translate(-8.35 -1.66)"/><path class="cls-1" d="M31,61.62a1.77,1.77,0,0,0-.53-.36,1.72,1.72,0,0,0-1.3,0,1.77,1.77,0,0,0-.53.36,2.12,2.12,0,0,0-.35.56,2,2,0,0,0,0,1.41,1.92,1.92,0,0,0,.35.55,1.64,1.64,0,0,0,.53.37,1.69,1.69,0,0,0,1.3,0,1.64,1.64,0,0,0,.53-.37,1.84,1.84,0,0,0,.35-.55,2,2,0,0,0,.13-.71,2,2,0,0,0-.13-.7A1.89,1.89,0,0,0,31,61.62Zm-1.92,2.31a1.41,1.41,0,0,1-.23-.44,2.25,2.25,0,0,1-.08-.61,2.18,2.18,0,0,1,.08-.6,1.36,1.36,0,0,1,.23-.45,1,1,0,0,1,.33-.26.91.91,0,0,1,.41-.09.9.9,0,0,1,.4.09.93.93,0,0,1,.33.26,1.2,1.2,0,0,1,.23.45,1.82,1.82,0,0,1,.08.6,2.25,2.25,0,0,1-.08.61,1.23,1.23,0,0,1-.23.44.75.75,0,0,1-.33.26,1,1,0,0,1-.82,0,.86.86,0,0,1-.32-.26Z" transform="translate(-8.35 -1.66)"/><path class="cls-1" d="M40,61.49a1,1,0,0,0-.39-.22,1.67,1.67,0,0,0-.52-.08H37.67v.28h.09l.24,0a.12.12,0,0,1,.08,0,.28.28,0,0,1,0,.11v2.94h.65V63.05l.12.05.17,0,.16,0a1.13,1.13,0,0,0,.56-.12,1,1,0,0,0,.33-.27.72.72,0,0,0,.16-.33.93.93,0,0,0,0-.27.83.83,0,0,0-.32-.68Zm-1.22.41a.45.45,0,0,1,0-.21l.06-.09,0,0a.65.65,0,0,1,.33,0,.62.62,0,0,1,.18.14.49.49,0,0,1,.11.2.69.69,0,0,1,0,.25.85.85,0,0,1,0,.23.56.56,0,0,1-.09.19.35.35,0,0,1-.14.13.57.57,0,0,1-.34.05.64.64,0,0,1-.2-.05h0V61.9Z" transform="translate(-8.35 -1.66)"/><path class="cls-1" d="M43.76,61.62a1.77,1.77,0,0,0-.53-.36,1.72,1.72,0,0,0-1.3,0,1.77,1.77,0,0,0-.53.36,1.89,1.89,0,0,0-.35.56,2,2,0,0,0,0,1.41,1.92,1.92,0,0,0,.35.55,1.64,1.64,0,0,0,.53.37,1.69,1.69,0,0,0,1.3,0,1.64,1.64,0,0,0,.53-.37,1.84,1.84,0,0,0,.35-.55,2,2,0,0,0,.13-.71,2,2,0,0,0-.13-.7A1.71,1.71,0,0,0,43.76,61.62Zm-1.92,2.31a1.41,1.41,0,0,1-.23-.44,1.92,1.92,0,0,1-.08-.61,2.18,2.18,0,0,1,.08-.6,1.36,1.36,0,0,1,.23-.45.93.93,0,0,1,.33-.26.9.9,0,0,1,.4-.09.91.91,0,0,1,.41.09.93.93,0,0,1,.33.26,1.36,1.36,0,0,1,.23.45,2.13,2.13,0,0,1,.08.6,2.25,2.25,0,0,1-.08.61,1.41,1.41,0,0,1-.23.44.75.75,0,0,1-.33.26,1,1,0,0,1-.82,0,.79.79,0,0,1-.32-.26Z" transform="translate(-8.35 -1.66)"/><path class="cls-1" d="M47.5,64.26l-.2-.11a1.33,1.33,0,0,1-.16-.17L47,63.75,46.43,63l.18-.07a.92.92,0,0,0,.28-.19.86.86,0,0,0,.2-.26.8.8,0,0,0,.08-.36,1.11,1.11,0,0,0-.05-.28.76.76,0,0,0-.18-.31,1.38,1.38,0,0,0-.38-.24,1.72,1.72,0,0,0-.61-.1H44.46v.28h.1l.24,0,.08.05a.21.21,0,0,1,0,.12,1.77,1.77,0,0,1,0,.24v2.7h.65V62.8l1.27,1.79h1v-.28h-.09a.55.55,0,0,1-.26,0Zm-1.93-1.51V61.9a.55.55,0,0,1,0-.21s0-.08.07-.09l.09,0a.6.6,0,0,1,.52.16.78.78,0,0,1,.11.18.86.86,0,0,1,0,.24.6.6,0,0,1-.06.29.58.58,0,0,1-.15.19.54.54,0,0,1-.23.1,1.27,1.27,0,0,1-.28,0Z" transform="translate(-8.35 -1.66)"/><path class="cls-1" d="M52.63,63.67q0,.15-.09.27a.56.56,0,0,1-.11.17.31.31,0,0,1-.15.08.85.85,0,0,1-.25,0h-.36a.88.88,0,0,1-.28,0,.36.36,0,0,1-.13-.11.42.42,0,0,1,0-.15.92.92,0,0,1,0-.16V61.18H50.1v.28h.1l.24,0s.07,0,.08.05a.2.2,0,0,1,0,.11,1.85,1.85,0,0,1,0,.25v2.69h2.21l.21-1h-.32Z" transform="translate(-8.35 -1.66)"/><path class="cls-1" d="M54.76,61.12,53.23,64.6h1v-.28h-.09l-.13,0-.09,0-.05,0s0,0,0,0a.25.25,0,0,1,0-.12l.07-.17.16-.39h1.12l.44,1.08h.63L55,61.12Zm-.44,2,.41-1,.41,1Z" transform="translate(-8.35 -1.66)"/><path class="cls-1" d="M60.87,63.67c0,.1-.07.19-.1.27a.56.56,0,0,1-.11.17.28.28,0,0,1-.15.08.78.78,0,0,1-.24,0H59.9a.66.66,0,0,1-.28,0,.26.26,0,0,1-.12-.11.3.3,0,0,1,0-.15.92.92,0,0,1,0-.16V63h.81l.15,0s0,0,0,0a.27.27,0,0,1,0,.13v.1h.28v-.86h-.28v.09a.28.28,0,0,1,0,.08s0,0-.05,0h-.95V61.55h1l.15,0a.27.27,0,0,1,.09.12,1.31,1.31,0,0,1,.07.27l0,.08h.27l0-.9H58.34v.28h.1l.24,0a.12.12,0,0,1,.08.05.2.2,0,0,1,0,.11,1.85,1.85,0,0,1,0,.25v2.69H61l.21-1h-.33l0,.08Z" transform="translate(-8.35 -1.66)"/><path class="cls-1" d="M65,64.3a.15.15,0,0,1-.11,0,.61.61,0,0,1-.14-.1c-.05,0-.1-.13-.17-.22l-.8-1.21.55-.72.15-.19a1.49,1.49,0,0,1,.17-.18l.19-.13a.65.65,0,0,1,.21,0h.09v-.28h-.71l-.89,1.2-.76-1.2h-1v.27l.21,0a.21.21,0,0,1,.11,0,.45.45,0,0,1,.14.11,1.12,1.12,0,0,1,.17.22l.7,1.06-.67.85a1.63,1.63,0,0,1-.17.2,1,1,0,0,1-.18.17.82.82,0,0,1-.2.12.71.71,0,0,1-.22.06h-.08v.27h.64l1.09-1.35.89,1.35h1v-.28h-.09Z" transform="translate(-8.35 -1.66)"/><path class="cls-1" d="M68.41,61.42l-.1,0-.09,0-.07-.05a2.09,2.09,0,0,0-.35-.13,1.46,1.46,0,0,0-.38-.05,1.7,1.7,0,0,0-1.61,1.13,2.07,2.07,0,0,0-.13.7,1.87,1.87,0,0,0,.12.68,1.5,1.5,0,0,0,.34.54,1.47,1.47,0,0,0,.52.36,1.64,1.64,0,0,0,.67.14,1.52,1.52,0,0,0,.85-.23,1.75,1.75,0,0,0,.57-.65l0-.07-.23-.15,0,.07a2.27,2.27,0,0,1-.21.28.93.93,0,0,1-.21.19.82.82,0,0,1-.25.12,1.28,1.28,0,0,1-.72,0,.8.8,0,0,1-.35-.21,1.05,1.05,0,0,1-.25-.4,1.67,1.67,0,0,1-.11-.64,2.22,2.22,0,0,1,.09-.67,1.31,1.31,0,0,1,.21-.46.88.88,0,0,1,.32-.26,1,1,0,0,1,.77,0,.88.88,0,0,1,.28.17.86.86,0,0,1,.2.26,1.42,1.42,0,0,1,.14.36l0,.07h.24l-.06-1" transform="translate(-8.35 -1.66)"/><path class="cls-1" d="M71.75,63.67a1.51,1.51,0,0,1-.1.28.64.64,0,0,1-.11.16.24.24,0,0,1-.15.09.78.78,0,0,1-.24,0h-.36a.63.63,0,0,1-.28,0,.36.36,0,0,1-.13-.11.25.25,0,0,1,0-.14,1.09,1.09,0,0,1,0-.17V63h.8a.32.32,0,0,1,.15,0,.07.07,0,0,1,0,0,.24.24,0,0,1,0,.13v.1h.28v-.87h-.28v.1a.38.38,0,0,1,0,.08l0,0h-1V61.55h.72l.27,0a.33.33,0,0,1,.15,0,.19.19,0,0,1,.09.12,1,1,0,0,1,.07.27l0,.07h.27l-.05-.89H69.22v.28h.1a.76.76,0,0,1,.24,0,.08.08,0,0,1,.08,0,.18.18,0,0,1,0,.11,1.85,1.85,0,0,1,0,.25v2.69h2.21l.21-1h-.32l0,.07Z" transform="translate(-8.35 -1.66)"/><path class="cls-1" d="M75.05,63.67A1.51,1.51,0,0,1,75,64a.36.36,0,0,1-.11.16.24.24,0,0,1-.14.09.88.88,0,0,1-.24,0h-.37a.63.63,0,0,1-.28,0,.26.26,0,0,1-.12-.11.27.27,0,0,1,0-.14,1.09,1.09,0,0,1,0-.17V61.19h-1.1v.28h.09a.76.76,0,0,1,.24,0,.09.09,0,0,1,.08,0,.34.34,0,0,1,0,.12v2.94h2.21l.21-1h-.32l0,.08Z" transform="translate(-8.35 -1.66)"/><path class="cls-1" d="M78.35,63.67c0,.11-.06.2-.09.28a.64.64,0,0,1-.11.16.27.27,0,0,1-.15.09.78.78,0,0,1-.24,0h-.37a.7.7,0,0,1-.28,0,.32.32,0,0,1-.12-.11.39.39,0,0,1,0-.14V63h.8a.34.34,0,0,1,.15,0l0,0a.56.56,0,0,1,0,.13v.1h.27v-.86H78v.09c0,.06,0,.08,0,.08l0,0h-1V61.55h1l.15,0a.27.27,0,0,1,.09.12,1.31,1.31,0,0,1,.07.27l0,.08h.28l-.06-.89H75.83v.28h.09a.76.76,0,0,1,.24,0,.08.08,0,0,1,.08,0,.28.28,0,0,1,0,.11v2.94h2.21l.21-1h-.32l0,.07Z" transform="translate(-8.35 -1.66)"/><path class="cls-1" d="M86.75,61.19h-.66V64.6h.66Z" transform="translate(-8.35 -1.66)"/><path class="cls-1" d="M88.92,61.12H88.7L87.17,64.6h1v-.28h-.1l-.12,0-.1,0-.05,0s0,0,0,0a.31.31,0,0,1,0-.12,1.62,1.62,0,0,1,.06-.17l.17-.39h1.12l.43,1.08h.63l-1.37-3.48Zm-.65,2,.41-1,.4,1Z" transform="translate(-8.35 -1.66)"/><path class="cls-1" d="M34.65,61.53c0-.06,0-.05.05-.09a.15.15,0,0,1,.12-.08.53.53,0,0,1,.2,0v-.14h-.77v2.24L32.42,61.2H32V64.6h.42V62.23l2,2.42h.21" transform="translate(-8.35 -1.66)"/><path class="cls-1" d="M85.29,61.42l-.1,0-.09,0L85,61.3a2.09,2.09,0,0,0-.35-.13,1.46,1.46,0,0,0-.38-.05,1.7,1.7,0,0,0-1.61,1.13,2,2,0,0,0,0,1.38,1.5,1.5,0,0,0,.34.54,1.47,1.47,0,0,0,.52.36,1.65,1.65,0,0,0,.68.14,1.54,1.54,0,0,0,.85-.23,1.65,1.65,0,0,0,.56-.65l.05-.07-.23-.15,0,.07a2.27,2.27,0,0,1-.21.28.79.79,0,0,1-.22.19.68.68,0,0,1-.24.12,1.28,1.28,0,0,1-.72,0,.8.8,0,0,1-.35-.21,1.21,1.21,0,0,1-.26-.4,1.91,1.91,0,0,1-.1-.64,2.62,2.62,0,0,1,.08-.67,1.52,1.52,0,0,1,.22-.46.88.88,0,0,1,.32-.26,1,1,0,0,1,.77,0,.88.88,0,0,1,.28.17.86.86,0,0,1,.2.26,1.42,1.42,0,0,1,.14.36l0,.07h.24l-.06-1" transform="translate(-8.35 -1.66)"/><path class="cls-1" d="M18.78,61.43l-.1,0-.09,0-.07,0a3,3,0,0,0-.35-.13,1.52,1.52,0,0,0-.38,0,1.64,1.64,0,0,0-.71.15,1.69,1.69,0,0,0-.55.4,1.72,1.72,0,0,0-.36.58,2.1,2.1,0,0,0-.12.7,1.78,1.78,0,0,0,.12.67,1.56,1.56,0,0,0,.86.91,1.65,1.65,0,0,0,.68.14,1.51,1.51,0,0,0,.84-.23,1.83,1.83,0,0,0,.57-.65l0-.07-.22-.15-.06.07a2.27,2.27,0,0,1-.21.28.76.76,0,0,1-.21.19.82.82,0,0,1-.25.12,1.28,1.28,0,0,1-.72,0,.77.77,0,0,1-.34-.21,1,1,0,0,1-.26-.4,1.69,1.69,0,0,1-.1-.64,2.67,2.67,0,0,1,.08-.67,1.31,1.31,0,0,1,.21-.46.88.88,0,0,1,.32-.26,1,1,0,0,1,.77,0,.78.78,0,0,1,.28.17.86.86,0,0,1,.2.26,1.42,1.42,0,0,1,.14.36l0,.07h.25l-.07-1" transform="translate(-8.35 -1.66)"/><path class="cls-1" d="M26.08,61.43l-.1,0-.09,0-.07,0a2.48,2.48,0,0,0-.35-.13,1.46,1.46,0,0,0-.38,0,1.64,1.64,0,0,0-.71.15,1.69,1.69,0,0,0-.55.4,1.89,1.89,0,0,0-.36.58,2.1,2.1,0,0,0-.12.7,1.78,1.78,0,0,0,.12.67,1.56,1.56,0,0,0,.86.91,1.65,1.65,0,0,0,.68.14,1.51,1.51,0,0,0,.84-.23,1.83,1.83,0,0,0,.57-.65l0-.07-.22-.15-.06.07a2.27,2.27,0,0,1-.21.28.76.76,0,0,1-.21.19.82.82,0,0,1-.25.12,1.25,1.25,0,0,1-.71,0,.75.75,0,0,1-.35-.21,1,1,0,0,1-.26-.4,1.69,1.69,0,0,1-.1-.64,2.67,2.67,0,0,1,.08-.67,1.31,1.31,0,0,1,.21-.46.88.88,0,0,1,.32-.26,1.05,1.05,0,0,1,.78,0,.83.83,0,0,1,.27.17A.86.86,0,0,1,26,62a1.42,1.42,0,0,1,.14.36l0,.07h.25l-.07-1" transform="translate(-8.35 -1.66)"/><path class="cls-1" d="M81.75,61.6c0-.06,0-.05,0-.09a.17.17,0,0,1,.12-.08.58.58,0,0,1,.21,0v-.13h-.78v2.25l-1.82-2.24h-.4v3.4h.42V62.29l2,2.43h.21" transform="translate(-8.35 -1.66)"/><path class="cls-1" d="M26.49,44.71a3.17,3.17,0,0,1-.09.8,1.73,1.73,0,0,1-.34.71,1.76,1.76,0,0,1-.68.53,2.74,2.74,0,0,1-1.12.2,3,3,0,0,1-1.14-.19,1.79,1.79,0,0,1-.69-.49,1.67,1.67,0,0,1-.34-.71,3.18,3.18,0,0,1-.1-.82V42.12c0-.18,0-.33,0-.45a.63.63,0,0,0-.09-.3.38.38,0,0,0-.24-.16,2,2,0,0,0-.48,0V41h1.65v3.43c0,.08,0,.19,0,.3s0,.23,0,.35a3.39,3.39,0,0,0,0,.35,1.12,1.12,0,0,0,.07.29,1,1,0,0,0,.22.37,1.18,1.18,0,0,0,.32.27,1.32,1.32,0,0,0,.39.15,2,2,0,0,0,.43,0,2.35,2.35,0,0,0,.86-.17,1.58,1.58,0,0,0,.68-.54A1.46,1.46,0,0,0,26,45.5a2.07,2.07,0,0,0,.08-.42,2.86,2.86,0,0,0,0-.42c0-.14,0-.27,0-.38V41h.37v3.7Z" transform="translate(-8.35 -1.66)"/><path class="cls-1" d="M34.14,41H35v5.81h-.82Z" transform="translate(-8.35 -1.66)"/><path class="cls-1" d="M39.16,47H39l-2.06-4.84-.15-.33a1.19,1.19,0,0,0-.18-.29.73.73,0,0,0-.24-.22.85.85,0,0,0-.34-.1V41h1.36l1.92,4.63L41.16,41h.42L39.16,47Z" transform="translate(-8.35 -1.66)"/><path class="cls-1" d="M43.55,43.62h1.61l.33,0a.29.29,0,0,0,.18-.12.38.38,0,0,0,.06-.24h.16v1.21h-.16a.89.89,0,0,0,0-.32.32.32,0,0,0-.19-.15,1,1,0,0,0-.32,0H43.55V45.5c0,.09,0,.19,0,.3a.72.72,0,0,0,.11.34.74.74,0,0,0,.29.26,1.32,1.32,0,0,0,.59.11h.66a1.41,1.41,0,0,0,.49-.07.9.9,0,0,0,.34-.2,1.35,1.35,0,0,0,.24-.35,5.12,5.12,0,0,0,.18-.52h.25l-.31,1.45H42.72V42.13c0-.18,0-.34,0-.46a.66.66,0,0,0-.09-.3.44.44,0,0,0-.25-.15,1.81,1.81,0,0,0-.47,0V41h4.46l.07,1.27h-.17a3.47,3.47,0,0,0-.15-.52.74.74,0,0,0-.22-.29.73.73,0,0,0-.35-.12,3.68,3.68,0,0,0-.51,0H43.55v2.29Z" transform="translate(-8.35 -1.66)"/><path class="cls-1" d="M48,42.12c0-.18,0-.33,0-.45a.63.63,0,0,0-.09-.3.38.38,0,0,0-.24-.16,2,2,0,0,0-.48,0V41h2.52a2.68,2.68,0,0,1,1,.16,1.71,1.71,0,0,1,.62.4,1.36,1.36,0,0,1,.29.5,1.65,1.65,0,0,1,.08.45,1.25,1.25,0,0,1-.12.56,1.51,1.51,0,0,1-.32.43,1.77,1.77,0,0,1-.45.3,2.62,2.62,0,0,1-.56.18l1.13,1.58c.11.15.21.29.31.41a1.72,1.72,0,0,0,.33.33,1.38,1.38,0,0,0,.39.23,1.89,1.89,0,0,0,.52.12v.16H51.34l-2.14-3a2.08,2.08,0,0,0,.55-.07,1.21,1.21,0,0,0,.46-.21,1.12,1.12,0,0,0,.34-.4,1.35,1.35,0,0,0,.12-.61,1.37,1.37,0,0,0-.09-.49,1.15,1.15,0,0,0-.24-.39,1.23,1.23,0,0,0-.37-.26,1.3,1.3,0,0,0-.49-.09l-.22,0a.49.49,0,0,0-.23.08.53.53,0,0,0-.19.24,1.12,1.12,0,0,0-.08.46v4.7h-.82v-4.7Z" transform="translate(-8.35 -1.66)"/><path class="cls-1" d="M53.41,45a2,2,0,0,0,.25.85,1.86,1.86,0,0,0,.46.5,1.6,1.6,0,0,0,.54.23,1.78,1.78,0,0,0,.47.07,1.59,1.59,0,0,0,.43-.06,1.4,1.4,0,0,0,.37-.17.83.83,0,0,0,.26-.3.93.93,0,0,0,.09-.42.84.84,0,0,0-.22-.58,2.6,2.6,0,0,0-.56-.46c-.23-.15-.48-.29-.74-.43a4.93,4.93,0,0,1-.73-.45,2.33,2.33,0,0,1-.56-.57,1.19,1.19,0,0,1-.23-.75,1.39,1.39,0,0,1,.13-.61,1.6,1.6,0,0,1,.36-.49,1.64,1.64,0,0,1,.54-.32,1.73,1.73,0,0,1,.64-.12,2,2,0,0,1,.44,0l.35.12a.73.73,0,0,1,.18.11,1.4,1.4,0,0,0,.24.15.61.61,0,0,0,.27.08.42.42,0,0,0,.29-.08l0,1.59H56.5a2.29,2.29,0,0,0-.15-.65,1.72,1.72,0,0,0-.32-.54,1.85,1.85,0,0,0-.51-.35,1.51,1.51,0,0,0-.65-.13,1.24,1.24,0,0,0-.37.06,1.13,1.13,0,0,0-.32.19.92.92,0,0,0-.23.29.74.74,0,0,0-.09.36.73.73,0,0,0,.24.54,2.91,2.91,0,0,0,.6.44c.24.14.5.28.78.41a5.89,5.89,0,0,1,.78.45,2.87,2.87,0,0,1,.59.56,1.2,1.2,0,0,1,.24.75,1.57,1.57,0,0,1-.13.65,1.55,1.55,0,0,1-.39.53,1.74,1.74,0,0,1-.6.37,2.06,2.06,0,0,1-.76.13,2.65,2.65,0,0,1-.53-.05,2.6,2.6,0,0,1-.39-.12.56.56,0,0,1-.17-.09,1.06,1.06,0,0,0-.19-.11,1.21,1.21,0,0,0-.27-.09,1.62,1.62,0,0,0-.41,0V45h.16Z" transform="translate(-8.35 -1.66)"/><path class="cls-1" d="M58.45,41h.83v5.81h-.83Z" transform="translate(-8.35 -1.66)"/><path class="cls-1" d="M61.32,42.12c0-.18,0-.33,0-.45a.63.63,0,0,0-.09-.3.44.44,0,0,0-.25-.16,2,2,0,0,0-.47,0V41h2.24l.62,0a4.6,4.6,0,0,1,.64,0,3.2,3.2,0,0,1,.61.15,2.05,2.05,0,0,1,.56.26,2.63,2.63,0,0,1,.52.47,3,3,0,0,1,.37.58,3.63,3.63,0,0,1,.21.66,3.23,3.23,0,0,1,.07.69A3.27,3.27,0,0,1,66.15,45a2.68,2.68,0,0,1-.59.93,2.92,2.92,0,0,1-1,.64,3.91,3.91,0,0,1-1.38.23H61.32v-4.7Zm.83,4.27.46.08a3.4,3.4,0,0,0,.45,0,2.33,2.33,0,0,0,1-.21,1.9,1.9,0,0,0,.72-.56,2.59,2.59,0,0,0,.44-.82,3.27,3.27,0,0,0,.15-1,3.38,3.38,0,0,0-.15-1,2.31,2.31,0,0,0-.44-.82,2,2,0,0,0-.73-.56,2.46,2.46,0,0,0-1-.2,1,1,0,0,0-.44.15,1.09,1.09,0,0,0-.31.35,1.57,1.57,0,0,0-.13.72v3.85Z" transform="translate(-8.35 -1.66)"/><path class="cls-1" d="M72.65,42.12c0-.18,0-.33,0-.45a.63.63,0,0,0-.09-.3.38.38,0,0,0-.24-.16,2,2,0,0,0-.48,0V41h2.25l.62,0a4.46,4.46,0,0,1,.63,0,3.3,3.3,0,0,1,.62.15,2.2,2.2,0,0,1,.56.26A2.88,2.88,0,0,1,77,42a3,3,0,0,1,.37.58,3.63,3.63,0,0,1,.21.66,3.23,3.23,0,0,1,.07.69A3.27,3.27,0,0,1,77.47,45a2.68,2.68,0,0,1-.59.93,2.83,2.83,0,0,1-1,.64,3.83,3.83,0,0,1-1.38.23H72.64v-4.7Zm.82,4.27.46.08a3.44,3.44,0,0,0,.46,0,2.4,2.4,0,0,0,1-.21,1.94,1.94,0,0,0,.71-.56,2.4,2.4,0,0,0,.44-.82,3,3,0,0,0,.15-1,3.09,3.09,0,0,0-.15-1,2.31,2.31,0,0,0-.44-.82,2,2,0,0,0-.73-.56,2.46,2.46,0,0,0-1-.2,1,1,0,0,0-.44.15,1,1,0,0,0-.3.35,1.57,1.57,0,0,0-.13.72v3.85Z" transform="translate(-8.35 -1.66)"/><path class="cls-1" d="M32.17,41h-.38v4.35h0l0,0h0L28.23,41h-.44v5.82h.38V42.35h0v-.1h0L32,46.91h.27V42c0-.16,0-.3,0-.4a.66.66,0,0,1,.08-.27.38.38,0,0,1,.22-.14,1,1,0,0,1,.35,0V41h-.77Z" transform="translate(-8.35 -1.66)"/><path class="cls-1" d="M69.44,40.88h-.15l-2.62,5.94h1.45v-.16l-.24,0-.22-.06a.35.35,0,0,1-.15-.11.29.29,0,0,1-.07-.19.88.88,0,0,1,.08-.31c0-.09.07-.16.09-.22h0l0-.08.34-.8h2.25l.78,2h.77l-2.34-5.94Zm-1.32,3.67,1-2.34,1,2.34Z" transform="translate(-8.35 -1.66)"/><path class="cls-1" d="M32.69,54.13A2.7,2.7,0,0,0,33,55.24a2.23,2.23,0,0,0,.6.65,2.28,2.28,0,0,0,.7.31,3.19,3.19,0,0,0,.61.08,2.52,2.52,0,0,0,.56-.07A1.71,1.71,0,0,0,36,56a1.26,1.26,0,0,0,.34-.39,1.19,1.19,0,0,0,.12-.54,1,1,0,0,0-.29-.76,3.26,3.26,0,0,0-.74-.61c-.29-.19-.61-.37-.95-.55a7.76,7.76,0,0,1-1-.6,3.16,3.16,0,0,1-.73-.73,1.66,1.66,0,0,1-.3-1,1.77,1.77,0,0,1,.18-.8,1.93,1.93,0,0,1,.47-.63,2.25,2.25,0,0,1,.7-.42,2.32,2.32,0,0,1,.84-.15,2.07,2.07,0,0,1,.57.07l.46.15a1.14,1.14,0,0,1,.24.15,1.81,1.81,0,0,0,.31.18.89.89,0,0,0,.35.11.54.54,0,0,0,.38-.11l0,2.07h-.21a3.07,3.07,0,0,0-.18-.85,2.25,2.25,0,0,0-.43-.68,2.3,2.3,0,0,0-.65-.47,2.15,2.15,0,0,0-.85-.17,1.17,1.17,0,0,0-.48.09,1.22,1.22,0,0,0-.43.24,1.1,1.1,0,0,0-.29.38,1,1,0,0,0-.12.47,1,1,0,0,0,.32.7,4.14,4.14,0,0,0,.78.57c.3.18.64.35,1,.53a7.64,7.64,0,0,1,1,.59,3.67,3.67,0,0,1,.78.74,1.56,1.56,0,0,1,.31,1,2,2,0,0,1-.18.84,2.25,2.25,0,0,1-.5.7,2.42,2.42,0,0,1-.78.47,2.87,2.87,0,0,1-1,.17,3.4,3.4,0,0,1-.69-.06l-.51-.15a1.55,1.55,0,0,1-.22-.12l-.25-.15L33,56.12a2.61,2.61,0,0,0-.54,0V54.13Z" transform="translate(-8.35 -1.66)"/><path class="cls-1" d="M40.28,52.38h2.11a2.29,2.29,0,0,0,.41,0,.44.44,0,0,0,.25-.15.56.56,0,0,0,.08-.32h.21v1.58h-.21a.89.89,0,0,0-.07-.41.37.37,0,0,0-.24-.2,1.61,1.61,0,0,0-.42-.05H40.29v2c0,.12,0,.25,0,.4a1.09,1.09,0,0,0,.14.43,1,1,0,0,0,.39.35,1.69,1.69,0,0,0,.76.14h.87a2.38,2.38,0,0,0,.64-.08,1.25,1.25,0,0,0,.44-.27,1.41,1.41,0,0,0,.3-.46,5.28,5.28,0,0,0,.24-.68h.32l-.4,1.9H39.2V50.43c0-.23,0-.43,0-.59a.75.75,0,0,0-.12-.39.57.57,0,0,0-.32-.21,3.13,3.13,0,0,0-.62-.05V49h5.81l.1,1.65h-.23a3.44,3.44,0,0,0-.18-.68.91.91,0,0,0-.29-.37,1.09,1.09,0,0,0-.46-.15,4.22,4.22,0,0,0-.67,0H40.28v3Z" transform="translate(-8.35 -1.66)"/><path class="cls-1" d="M46.19,50.43c0-.23,0-.43,0-.59a.75.75,0,0,0-.12-.39.57.57,0,0,0-.32-.21,3.13,3.13,0,0,0-.62-.05V49h3.5a5,5,0,0,1,1.37.16,2.54,2.54,0,0,1,.9.46,1.73,1.73,0,0,1,.51.65,1.83,1.83,0,0,1,.16.77,1.53,1.53,0,0,1-.39,1.06,2,2,0,0,1-1,.6v0a2.36,2.36,0,0,1,.64.19,1.8,1.8,0,0,1,.53.37,1.62,1.62,0,0,1,.52,1.2,2.57,2.57,0,0,1-.09.61,1.66,1.66,0,0,1-.41.69,2.44,2.44,0,0,1-.89.57,4,4,0,0,1-1.52.23H46.19V50.43ZM47.27,56a5.19,5.19,0,0,0,1.29.15,3,3,0,0,0,.73-.09,2.18,2.18,0,0,0,.66-.27,1.53,1.53,0,0,0,.49-.49,1.35,1.35,0,0,0,.19-.72,1.59,1.59,0,0,0-.22-.84,1.8,1.8,0,0,0-.56-.54,2.43,2.43,0,0,0-.77-.27,3.57,3.57,0,0,0-.86-.07l-1,0,0,3.11Zm2.24-3.69a1.58,1.58,0,0,0,.57-.41,1.08,1.08,0,0,0,.25-.5,1.91,1.91,0,0,0,.06-.43,1.42,1.42,0,0,0-.18-.74,1.7,1.7,0,0,0-.5-.5,2.28,2.28,0,0,0-.7-.28,3.22,3.22,0,0,0-.76-.09.89.89,0,0,0-.49.16,1.32,1.32,0,0,0-.34.51,2.93,2.93,0,0,0-.15,1.07v1.36l1.26,0a2.4,2.4,0,0,0,1-.17Z" transform="translate(-8.35 -1.66)"/><path class="cls-1" d="M59.88,54.13a2.55,2.55,0,0,0,.34,1.11,2.08,2.08,0,0,0,.59.65,2.28,2.28,0,0,0,.7.31,3.19,3.19,0,0,0,.62.08,2.68,2.68,0,0,0,.56-.07,1.78,1.78,0,0,0,.48-.23,1.26,1.26,0,0,0,.34-.39,1.19,1.19,0,0,0,.12-.54,1,1,0,0,0-.29-.76,3.26,3.26,0,0,0-.74-.61c-.29-.19-.61-.37-1-.55a7.76,7.76,0,0,1-1-.6A3.16,3.16,0,0,1,60,51.8a1.66,1.66,0,0,1-.3-1,1.77,1.77,0,0,1,.18-.8,1.93,1.93,0,0,1,.47-.63A2.25,2.25,0,0,1,61,49a2.32,2.32,0,0,1,.84-.15,2,2,0,0,1,.56.07l.47.15a1.46,1.46,0,0,1,.24.15,2.16,2.16,0,0,0,.3.18.89.89,0,0,0,.35.11.52.52,0,0,0,.38-.11l0,2.07h-.21a3.08,3.08,0,0,0-.19-.85,2,2,0,0,0-.42-.68,2,2,0,0,0-.66-.47,2.08,2.08,0,0,0-.85-.17,1.15,1.15,0,0,0-.47.09,1.14,1.14,0,0,0-.43.24,1.24,1.24,0,0,0-.29.38,1,1,0,0,0-.12.47.94.94,0,0,0,.31.7,4.5,4.5,0,0,0,.78.57c.31.18.65.35,1,.53a7.64,7.64,0,0,1,1,.59,3.67,3.67,0,0,1,.78.74,1.56,1.56,0,0,1,.31,1,2,2,0,0,1-.18.84,2.25,2.25,0,0,1-.5.7,2.54,2.54,0,0,1-.78.47,2.91,2.91,0,0,1-1,.17,3.23,3.23,0,0,1-.68-.06L61,56.51a1.55,1.55,0,0,1-.22-.12,1.25,1.25,0,0,0-.24-.15l-.35-.12a2.72,2.72,0,0,0-.55,0V54.13Z" transform="translate(-8.35 -1.66)"/><path class="cls-1" d="M68,49.46h-.64a2.25,2.25,0,0,0-1.29.27,2.13,2.13,0,0,0-.51,1.19h-.27L65.33,49h6.46l.06,1.94h-.27a2.37,2.37,0,0,0-.51-1.19,2.14,2.14,0,0,0-1.3-.27h-.64v7.09H68V49.46Z" transform="translate(-8.35 -1.66)"/><path class="cls-1" d="M73.33,49H74.4v7.57H73.33Z" transform="translate(-8.35 -1.66)"/><path class="cls-1" d="M89.33,49h-.49v5.66h0l0-.06h0L84.21,49h-.57v7.57h.5v-6h0l5,6.09h.35V50.27c0-.21,0-.39,0-.53a.76.76,0,0,1,.1-.34.48.48,0,0,1,.29-.18,1.3,1.3,0,0,1,.46-.06V49Z" transform="translate(-8.35 -1.66)"/><path class="cls-1" d="M17.55,48.81h-.2l-3.41,7.74h1.88v-.21l-.31,0-.28-.07a.45.45,0,0,1-.21-.15.36.36,0,0,1-.08-.24,1.08,1.08,0,0,1,.09-.39c.05-.12.1-.21.13-.3h0l0-.1.44-1h2.94l1,2.54h1l-3.05-7.75ZM15.82,53.6l1.32-3.05,1.29,3.05Z" transform="translate(-8.35 -1.66)"/><path class="cls-1" d="M27.62,49h-.49v5.66h0l-.05-.06h0L22.5,49h-.56v7.57h.49v-6h0l5,6.09h.35V50.26c0-.21,0-.38,0-.52a.69.69,0,0,1,.11-.35.47.47,0,0,1,.28-.18,1.72,1.72,0,0,1,.46-.05V49Z" transform="translate(-8.35 -1.66)"/><path class="cls-1" d="M56.13,48.79h-.2l-3.41,7.75h1.89v-.21l-.32,0a1.29,1.29,0,0,1-.28-.08.6.6,0,0,1-.21-.14.37.37,0,0,1-.08-.25,1.12,1.12,0,0,1,.1-.39c.05-.12.09-.22.13-.3h0l0-.1.43-1h2.94l1,2.54h1l-3-7.75Zm-1.73,4.8,1.32-3.06L57,53.59Z" transform="translate(-8.35 -1.66)"/><path class="cls-1" d="M8.71,54.13A2.7,2.7,0,0,0,9,55.24a2,2,0,0,0,.6.65,2.18,2.18,0,0,0,.7.31,3.1,3.1,0,0,0,.61.08,2.6,2.6,0,0,0,.56-.07A1.71,1.71,0,0,0,12,56a1.41,1.41,0,0,0,.34-.39,1.19,1.19,0,0,0,.12-.54,1,1,0,0,0-.29-.76,3.05,3.05,0,0,0-.74-.61c-.29-.19-.61-.37-.95-.55a7.76,7.76,0,0,1-1-.6,3.16,3.16,0,0,1-.73-.73,1.65,1.65,0,0,1-.29-1,1.77,1.77,0,0,1,.17-.8,1.83,1.83,0,0,1,.48-.63,2.14,2.14,0,0,1,.7-.42,2.31,2.31,0,0,1,.83-.15,2,2,0,0,1,.57.07l.46.15a1.14,1.14,0,0,1,.24.15,2.16,2.16,0,0,0,.3.18.89.89,0,0,0,.35.11.56.56,0,0,0,.39-.11l0,2.07h-.21a3.08,3.08,0,0,0-.19-.85,1.92,1.92,0,0,0-.43-.68,2,2,0,0,0-.65-.47,2.08,2.08,0,0,0-.85-.17,1.12,1.12,0,0,0-.47.09,1.14,1.14,0,0,0-.43.24,1.1,1.1,0,0,0-.29.38,1,1,0,0,0-.12.47,1,1,0,0,0,.32.7,4.14,4.14,0,0,0,.78.57c.31.18.65.35,1,.53a7.64,7.64,0,0,1,1,.59,3.45,3.45,0,0,1,.78.74,1.56,1.56,0,0,1,.31,1,2,2,0,0,1-.18.84,2.25,2.25,0,0,1-.5.7,2.17,2.17,0,0,1-.78.47,2.66,2.66,0,0,1-1,.18,2.77,2.77,0,0,1-.69-.07,4.5,4.5,0,0,1-.51-.15.94.94,0,0,1-.22-.12l-.25-.15-.35-.12a2.75,2.75,0,0,0-.55,0V54.13Z" transform="translate(-8.35 -1.66)"/><path class="cls-1" d="M80.4,54H77.46L77,55.06l-.15.37a1,1,0,0,0-.1.39.37.37,0,0,0,.09.26.48.48,0,0,0,.2.14l.28.08.32,0v.21H75.76l3.41-7.76h.21l3.06,7.76h-1L80.4,54ZM79,50.52l-1.32,3.06h2.61Z" transform="translate(-8.35 -1.66)"/><path class="cls-2" d="M49.42,1.66A18.75,18.75,0,1,0,68.17,20.41,18.75,18.75,0,0,0,49.42,1.66Zm0,36.59A17.85,17.85,0,1,1,67.27,20.41,17.85,17.85,0,0,1,49.42,38.25Z" transform="translate(-8.35 -1.66)"/><path class="cls-3" d="M49.42,38.25A17.85,17.85,0,1,0,31.57,20.41,17.85,17.85,0,0,0,49.42,38.25Z" transform="translate(-8.35 -1.66)"/><path class="cls-2" d="M45.25,28.22H46l-.4,1.23Z" transform="translate(-8.35 -1.66)"/><path class="cls-2" d="M46,30.68h-.79l.39-1.23Z" transform="translate(-8.35 -1.66)"/><path class="cls-2" d="M44.42,29.86v-.79l1.22.39Z" transform="translate(-8.35 -1.66)"/><path class="cls-2" d="M46.87,29.08v.79l-1.23-.4Z" transform="translate(-8.35 -1.66)"/><path class="cls-2" d="M48.78,28.18h.79l-.39,1.23Z" transform="translate(-8.35 -1.66)"/><path class="cls-2" d="M49.57,30.63h-.79l.4-1.22Z" transform="translate(-8.35 -1.66)"/><path class="cls-2" d="M48,29.82V29l1.23.4Z" transform="translate(-8.35 -1.66)"/><path class="cls-2" d="M50.4,29v.79l-1.23-.39Z" transform="translate(-8.35 -1.66)"/><path class="cls-2" d="M52.29,28.24h.79l-.39,1.23Z" transform="translate(-8.35 -1.66)"/><path class="cls-2" d="M53.08,30.69h-.79l.4-1.23Z" transform="translate(-8.35 -1.66)"/><path class="cls-2" d="M51.46,29.88v-.79l1.23.39Z" transform="translate(-8.35 -1.66)"/><path class="cls-2" d="M53.91,29.09v.79l-1.22-.4Z" transform="translate(-8.35 -1.66)"/><path class="cls-2" d="M50.17,23.34s0,0,0,0c0,.3,0,.61,0,.9a3.5,3.5,0,0,0,.12.66,2.11,2.11,0,0,0,.36.66,2.85,2.85,0,0,0,.56.47l2.24,1.5c0,.06,0,.08,0,.08H52.42a.14.14,0,0,1-.12-.05c-.17-.09-.69-.52-1-.73,0,0-1.43-1-1.47.77h-1v0s-.08-1.83-1.63-.79l-1.13.7-.2.12H44.66a.17.17,0,0,1,.06-.19s1.66-.84,2-1.1l.7-.58a2.89,2.89,0,0,0,.38-.47c.06-.09.1-.18.15-.27s.1-.2.14-.3a3.18,3.18,0,0,0,.18-.89,1.41,1.41,0,0,1,0-.2,1.69,1.69,0,0,0,0-.23.86.86,0,0,0,0-.16c0-.27,0-.54,0-.8s0-.27,0-.37c0-.27-.34-.5-.34-.5l-.53-.35A4.08,4.08,0,0,1,46.1,22.3a.21.21,0,0,0,.1.06l.15.05a.34.34,0,0,1,.19.27.17.17,0,0,1,0,.07.19.19,0,0,1-.23.12h0c-.2-.1-.17-.25-.2-.38a.26.26,0,0,0-.07-.16,2,2,0,0,1-.53.11h-.26a.25.25,0,0,0,0,.08c0,.1.16.08.31.18s.13.19.26.23.14,0,.26,0a.24.24,0,0,1,.12.09.23.23,0,0,1,0,.18.28.28,0,0,1-.1.21.22.22,0,0,1-.13,0,.34.34,0,0,1-.28-.11.28.28,0,0,1,0-.29s0,0,0,0a.16.16,0,0,0,0-.09.72.72,0,0,0-.44-.31.29.29,0,0,0,0,.16l0,.05s.05,0,.08.06a.29.29,0,0,1,.18.19.35.35,0,0,1-.05.24.12.12,0,0,1-.08.06l-.08,0a.5.5,0,0,1-.17,0,.32.32,0,0,1-.14-.12.27.27,0,0,1,0-.23c0-.09.13-.12.15-.24h0a.72.72,0,0,0-.05-.33s0,0,0,0l-.2,0a.46.46,0,0,1-.16.15l-.23.12a.26.26,0,0,1-.11.28.24.24,0,0,1-.3,0,.23.23,0,0,1-.09-.12.2.2,0,0,1,0-.15.21.21,0,0,1,.19-.17.4.4,0,0,1,.26.05l.06,0h.06a.65.65,0,0,0,.22-.11s0,0,0-.06l-.18,0h-.06a.25.25,0,0,0-.12,0,.33.33,0,0,1-.26,0,.26.26,0,0,1-.12-.15.24.24,0,0,1,.05-.18.18.18,0,0,1,.19,0,.55.55,0,0,1,.14.09l.08.07,0,0a.54.54,0,0,1,.1,0h0l.22,0a.3.3,0,0,0,0-.09.08.08,0,0,0,0,0s-.06,0-.1,0a.32.32,0,0,1-.28-.08.24.24,0,0,1-.06-.29.23.23,0,0,1,.26-.12.29.29,0,0,1,.12.1.42.42,0,0,1,.08.22.31.31,0,0,0,0,.1c0,.09.07.12.15.21h0a2.12,2.12,0,0,0,.55,0l-.05-.12,0,0a.17.17,0,0,0-.1,0,.34.34,0,0,1-.29-.08.29.29,0,0,1-.06-.29.21.21,0,0,1,.26-.12.26.26,0,0,1,.13.1.41.41,0,0,1,.07.22.34.34,0,0,0,0,.1l.17.21h0l.06,0a1.14,1.14,0,0,0,.47-.26,0,0,0,0,0,0-.06l-.05,0a.61.61,0,0,1-.18-.05.39.39,0,0,1-.1-.08,2.09,2.09,0,0,1-.24-.28.21.21,0,0,1-.13,0l-.12-.05a.22.22,0,0,1-.12-.09.29.29,0,0,1-.05-.18.26.26,0,0,1,.11-.2.35.35,0,0,1,.13,0,.38.38,0,0,1,.28.12.27.27,0,0,1,0,.29s0,0,0,0a.09.09,0,0,0,0,.09.7.7,0,0,0,.44.32.29.29,0,0,0,0-.16.43.43,0,0,0,0-.05s-.06,0-.09-.06a.31.31,0,0,1-.18-.19.26.26,0,0,1,.05-.24.33.33,0,0,1,.27-.08.25.25,0,0,1,.19.11.27.27,0,0,1,0,.13.49.49,0,0,1-.17.34l0,0v0a1.24,1.24,0,0,0,0,.27A2.9,2.9,0,0,0,47,21a6.16,6.16,0,0,0-1.57-.46,3.37,3.37,0,0,1-1.93-1.36,2.72,2.72,0,0,0-.35-.47,2.82,2.82,0,0,0-1-.65c0,.07,0,.13,0,.17a1,1,0,0,0,.31.47h0a.33.33,0,0,1,.24,0,.34.34,0,0,1,.19.36.23.23,0,0,1-.1.12.26.26,0,0,1-.27,0c-.15-.08-.15-.25-.14-.4v0h0s-.12-.1-.16-.1-.09.08-.1.11a.26.26,0,0,0,0,.21l.06.06a.53.53,0,0,1,.15.32.31.31,0,0,1-.08.23.27.27,0,0,1-.15,0,.31.31,0,0,1-.28-.1.29.29,0,0,1-.06-.34c0-.1.18-.1.21-.22a.17.17,0,0,0,0-.1l-.46.15a.39.39,0,0,0-.11.06c-.09.1,0,.25,0,.38a.28.28,0,0,1-.32.2.4.4,0,0,1-.3-.26.42.42,0,0,1,0-.29.36.36,0,0,1,.28-.19.33.33,0,0,1,.24,0l0,0h0l.26-.09a2.8,2.8,0,0,0,.41-.13.28.28,0,0,0,.14-.28c0-.07,0-.1-.07-.23a1.08,1.08,0,0,1,0-.19h-.29l-.18,0a.73.73,0,0,0-.1.14.14.14,0,0,0,0,.06s0,0,0,.05a.24.24,0,0,1,0,.12.66.66,0,0,1-.11.24.33.33,0,0,1-.13.13.25.25,0,0,1-.31-.12.32.32,0,0,1,.05-.33.39.39,0,0,1,.15-.11c.14,0,.26,0,.29,0s0,0,0-.06a.31.31,0,0,1,0-.08,1.23,1.23,0,0,0-.46.1,1.3,1.3,0,0,0-.3.19l0,0a0,0,0,0,0,0,0,.06.06,0,0,0,0,0c0,.07,0,.15,0,.22a.34.34,0,0,1-.42.16.3.3,0,0,1-.16-.19.25.25,0,0,1,.1-.25,1.33,1.33,0,0,1,.21-.09l.14,0a1.18,1.18,0,0,0,.19-.11c0-.23-.08-.32-.14-.36s-.09,0-.16-.07a.37.37,0,0,1-.13-.16.29.29,0,0,1,.06-.27.27.27,0,0,1,.32-.08.27.27,0,0,1,.15.19.29.29,0,0,1,0,.21c0,.06-.07.06-.09.11s0,.11,0,.21a.67.67,0,0,0,.26-.46.17.17,0,0,0,0-.1l0,0a.27.27,0,0,1-.09-.28.32.32,0,0,1,.2-.21.22.22,0,0,1,.14,0,.32.32,0,0,1,.18.15.28.28,0,0,1,0,.18.32.32,0,0,1-.08.13c-.08.1-.14.08-.21.16a1.57,1.57,0,0,0-.12.28.67.67,0,0,1-.17.26h0s-.05,0-.06.05a.1.1,0,0,0,0,.05h0l.07,0h.06a3.19,3.19,0,0,1,1-.25.2.2,0,0,0,0-.13.32.32,0,0,0-.07-.1l-.08,0a.43.43,0,0,1-.15-.2.27.27,0,0,1,.1-.29.24.24,0,0,1,.29,0,.28.28,0,0,1,.06.15.87.87,0,0,1,0,.23.37.37,0,0,1-.05.11s0,0,0,0v.06a.46.46,0,0,0,0,.14h0a2.32,2.32,0,0,1,1,.29,1,1,0,0,0-.21-.57.9.9,0,0,1-.3-.17.54.54,0,0,1-.18-.35.76.76,0,0,0,0-.26.41.41,0,0,1,0-.08c0-.07.07-.11.1-.16s0-.17,0-.26a.81.81,0,0,1,.18-.19c.05-.05.1-.11.16-.09s0,0,.09.07.13,0,.18.06.05.11.09.15.1.07.12.12,0,.09,0,.12.06.09.08.14,0,.1,0,.15.05.13,0,.19-.08.14-.11.21,0,.06,0,.08a.31.31,0,0,1-.08.15,2.4,2.4,0,0,0,.39,1.36,3.88,3.88,0,0,0,2.84,1.32,2.41,2.41,0,0,0-.27-2L46,18.2a.53.53,0,0,0-.16.27.69.69,0,0,0,0,.32,0,0,0,0,0,0,0l0,0a.39.39,0,0,1,.19.19.4.4,0,0,1-.13.44.22.22,0,0,1-.18,0,.33.33,0,0,1-.23-.2c-.05-.18.09-.32.21-.43a0,0,0,0,0,0,0v0s0-.18-.06-.21-.13,0-.17,0a.28.28,0,0,0-.17.15.38.38,0,0,0,0,.1.51.51,0,0,1-.13.37.31.31,0,0,1-.24.13.34.34,0,0,1-.17-.08A.4.4,0,0,1,44.7,19a.33.33,0,0,1,.15-.29.63.63,0,0,1,.41,0l.05-.11-.45-.24a.33.33,0,0,0-.15,0c-.14,0-.2.19-.32.27a.3.3,0,0,1-.41-.09.51.51,0,0,1,0-.45.44.44,0,0,1,.21-.25.39.39,0,0,1,.37.07.37.37,0,0,1,.18.21s0,0,0,0h0l.28.13a3.48,3.48,0,0,0,.43.22.26.26,0,0,0,.3-.06,2.82,2.82,0,0,0,.18-.29.34.34,0,0,1,.14-.09,2.11,2.11,0,0,0-.19-.23.38.38,0,0,0-.31,0s0,0-.09.07a.44.44,0,0,1-.24.11A.31.31,0,0,1,45,18a.25.25,0,0,1-.1-.31.3.3,0,0,1,.28-.18.39.39,0,0,1,.3.17s0,.08.09.09l.08,0,.08,0A3,3,0,0,0,44.48,17h-.07a.21.21,0,0,0-.11.07.87.87,0,0,1-.17.08.42.42,0,0,1-.41-.13.37.37,0,0,1-.09-.18.41.41,0,0,1,.07-.3.29.29,0,0,1,.32-.06.54.54,0,0,1,.23.15.48.48,0,0,0,.18.13,0,0,0,0,0,0,0,2.5,2.5,0,0,1,.47.19.92.92,0,0,0,0-.29v0h0a.4.4,0,0,1-.25-.3.33.33,0,0,1,0-.1.3.3,0,0,1,.29-.21.27.27,0,0,1,.16,0,.23.23,0,0,1,.1.22.32.32,0,0,1-.13.23.12.12,0,0,0-.07.07.13.13,0,0,0,0,.06.42.42,0,0,0,0,.15.68.68,0,0,0,.36-.4.08.08,0,0,0,0-.09s0,0,0,0a.26.26,0,0,1,0-.29.33.33,0,0,1,.24-.17.34.34,0,0,1,.14,0,.24.24,0,0,1,.14.17.25.25,0,0,1,0,.19.27.27,0,0,1-.1.11.33.33,0,0,1-.23.08c-.06.11-.12.19-.18.29l-.1.12a.49.49,0,0,1-.15.1s0,0,0,0S45,17,45,17a4.91,4.91,0,0,1,.59.37.24.24,0,0,0,.09-.07.19.19,0,0,0,0-.08.19.19,0,0,0,0-.13.72.72,0,0,1,0-.34A.33.33,0,0,1,46,16.6a.24.24,0,0,1,.22.23.25.25,0,0,1-.06.17.41.41,0,0,1-.21.16l-.11,0a.43.43,0,0,0-.15.26,3,3,0,0,1,.44.39l.19.21a.43.43,0,0,0,0-.07s0,0,0-.06a.24.24,0,0,0,0-.09.42.42,0,0,1-.11-.31.29.29,0,0,1,.21-.24.23.23,0,0,1,.27.14.37.37,0,0,1,0,.18.52.52,0,0,1-.14.21l-.08.07a.34.34,0,0,0-.07.26,4.39,4.39,0,0,1,.35.69,3.46,3.46,0,0,1,.2.7.27.27,0,0,0,.24-.25,4,4,0,0,0,0-.49c0-.1,0-.2,0-.3v0s0,0,0,0a.47.47,0,0,1-.11-.26.4.4,0,0,1,.11-.35.41.41,0,0,1,.32-.08.53.53,0,0,1,.38.25.33.33,0,0,1-.11.42c-.13.06-.32,0-.39.15a.4.4,0,0,0,0,.15c0,.16,0,.34,0,.5l.12,0a.6.6,0,0,1,.21-.36.31.31,0,0,1,.32,0,.43.43,0,0,1,.2.26.41.41,0,0,1,0,.19.32.32,0,0,1-.22.15.58.58,0,0,1-.39-.05l-.09,0a.28.28,0,0,0-.22.08s-.1.1-.09.15a.79.79,0,0,0,.17.14h0s0,0,0,0,.34-.12.48,0a.3.3,0,0,1,.07.3.27.27,0,0,1-.09.15.42.42,0,0,1-.45-.09.38.38,0,0,1-.09-.25s0,0,0,0l0,0a.8.8,0,0,0-.29-.15c0,.22.06.42.08.56a6,6,0,0,1,1.27.45s.24-3,.2-3.73a6.65,6.65,0,0,0-.85-.88c-.33-.23-.89-.66-.89-.66a3.35,3.35,0,0,1-1.66-.33l0,0-.05,0s0,0,0,0,0,0,0,0a.12.12,0,0,1,0,.09.35.35,0,0,1-.15.15.27.27,0,0,1-.34-.11c0-.09,0-.2.13-.25a.28.28,0,0,1,.22,0l.07,0,.08,0s0,0,0,0,0,0,.05-.05a2.09,2.09,0,0,1-.52-.42l-.09.06-.05,0,0,.05,0,0a.36.36,0,0,1,0,.11.69.69,0,0,1-.18.22.36.36,0,0,1-.17.07.25.25,0,0,1-.24-.21.31.31,0,0,1,.16-.29.36.36,0,0,1,.27,0l.08,0s.09,0,.1,0l0,0,.1-.12a3.07,3.07,0,0,1-.58-.91l0,0s0,0,0,.05a.67.67,0,0,1,0,.2.19.19,0,0,1,0,.09c-.06.1-.11.2-.17.29a.16.16,0,0,1,.05.11.24.24,0,0,1,0,.12s-.05.18-.19.22a.29.29,0,0,1-.21,0,.2.2,0,0,1-.08-.1.29.29,0,0,1,0-.27.24.24,0,0,1,.24-.11h0s0,0,.06-.05a.66.66,0,0,0,.15-.48.39.39,0,0,0-.14,0l0,0s0,.06,0,.09a.31.31,0,0,1-.11.22.27.27,0,0,1-.23,0,.22.22,0,0,1-.11-.1.25.25,0,0,1,0-.17.23.23,0,0,1,.06-.16l.08,0a.37.37,0,0,1,.35.06h0a.79.79,0,0,0,.26-.13,1.67,1.67,0,0,1-.07-.29,1,1,0,0,0,0-.25,1.07,1.07,0,0,0-.07-.15.81.81,0,0,1-.08-.25.28.28,0,0,1,.14-.27.37.37,0,0,1,.29,0,.6.6,0,0,1,.14.13.44.44,0,0,1,0,.35.42.42,0,0,1-.08.14c-.06.06-.1.06-.13.1s0,.17,0,.29a3.59,3.59,0,0,0,.31.8s0-.06.05-.09l0-.05L44.31,14l-.06-.06a.37.37,0,0,1-.08-.24.28.28,0,0,1,.2-.24.23.23,0,0,1,.27.13.29.29,0,0,1,0,.16.73.73,0,0,1-.09.22.71.71,0,0,1-.07.09l0,0,0,.05c0,.11,0,.1,0,.12s0,.06.1.17a1.31,1.31,0,0,0,.23.18l.21-.18c.18-.18.19-.27.19-.31s-.08-.16-.18-.35a2.14,2.14,0,0,1-.1-.22s0,0,0,0h0a.38.38,0,0,1-.18-.15.3.3,0,0,1,0-.29.31.31,0,0,1,.2-.17.41.41,0,0,1,.36,0,.27.27,0,0,1,.07.34c-.07.1-.22.14-.23.25a.17.17,0,0,0,0,.12c.06.12.12.24.19.36l.09,0a.49.49,0,0,1,0-.34.28.28,0,0,1,.24-.11.29.29,0,0,1,.23.12.2.2,0,0,1,.06.14.22.22,0,0,1-.11.19.45.45,0,0,1-.3.1h-.07c-.07,0-.1.08-.13.13s0,.11,0,.14.13,0,.17,0h0c.09-.1.2-.21.35-.17a.28.28,0,0,1,.16.19.17.17,0,0,1,0,.14.3.3,0,0,1-.35.1.26.26,0,0,1-.16-.15s0,0,0,0h0a.62.62,0,0,0-.36,0,.39.39,0,0,0-.18.19l.2.11a1.8,1.8,0,0,0,1.29.26,1.89,1.89,0,0,1-.24-1.53s.1-.2.13,0,0,.52,0,.69a1.58,1.58,0,0,0,.63.89,6.11,6.11,0,0,0,1.23.79h0a1.22,1.22,0,0,0-.12-.94l-.05-.07c-.07-.13-.09-.16-.12-.16s0,0-.08,0a.19.19,0,0,0-.07.08h0a.15.15,0,0,1,0,.07.63.63,0,0,1-.11.12.21.21,0,0,1-.11,0,.16.16,0,0,1-.16-.13.2.2,0,0,1,.1-.19.27.27,0,0,1,.18,0,.06.06,0,0,0,0,0s.05,0,.05,0l0,0,.05-.07a1.46,1.46,0,0,0-.27-.17l0,0-.3-.09h0a.25.25,0,0,1-.13.06.2.2,0,0,1-.11,0,.32.32,0,0,1-.1-.1.14.14,0,0,1,0-.14.12.12,0,0,1,.05,0,.23.23,0,0,1,.2,0,.79.79,0,0,1,.13.13l.12.05h0a.35.35,0,0,0,0-.15c0-.14,0-.21-.07-.24s-.14-.05-.19-.13a.23.23,0,0,1,0-.24.25.25,0,0,1,.17-.08.24.24,0,0,1,.16,0,.2.2,0,0,1,.08.18c0,.1-.08.1-.1.21s0,.08,0,.22a.74.74,0,0,1,0,.21h0l.19.09,0-.09a.41.41,0,0,0,0-.2c0-.12-.07-.12-.07-.21a.2.2,0,0,1,.1-.18.19.19,0,0,1,.13,0,.17.17,0,0,1,.14.11.18.18,0,0,1,0,.16c0,.08-.12.05-.18.12s0,.08-.06.2a.41.41,0,0,1-.07.12h0l.16.1,0,0h0l0,0s0,0,0,0a0,0,0,0,0,0,0,.09.09,0,0,1,0-.07.41.41,0,0,1,.11-.12.16.16,0,0,1,.1-.05.16.16,0,0,1,.17.13.21.21,0,0,1-.09.19.23.23,0,0,1-.18,0H47.9s0,0,0,.05l0,0a1.79,1.79,0,0,1,.25.23l0,0,.08.1a1.92,1.92,0,0,1,.29,1.11l.13.1s.14-2.86.15-3a2.47,2.47,0,0,0,0-.61,1.66,1.66,0,0,0-.49-.64.3.3,0,0,0,0,.08.55.55,0,0,0,.1.51l0,0h0a.29.29,0,0,1,.2.07.31.31,0,0,1,.07.36.17.17,0,0,1-.12.08A.24.24,0,0,1,48.3,13c-.11-.11-.06-.26,0-.38a0,0,0,0,0,0,0h0s-.09-.12-.12-.13-.1,0-.12.07a.21.21,0,0,0-.07.18s0,0,0,.07a.42.42,0,0,1,0,.31.25.25,0,0,1-.13.18.23.23,0,0,1-.14,0,.36.36,0,0,1-.22-.16.27.27,0,0,1,0-.26.5.5,0,0,1,.29-.18v-.09h-.42a.3.3,0,0,0-.12,0c-.1,0-.07.21-.12.31a.24.24,0,0,1-.33.09.38.38,0,0,1-.2-.3.3.3,0,0,1,.06-.26A.35.35,0,0,1,47,12.3a.37.37,0,0,1,.21.09l0,0h.67a.27.27,0,0,0,.19-.21.92.92,0,0,0,0-.24c0-.07,0-.14,0-.17a1.38,1.38,0,0,0-.24-.14,1.7,1.7,0,0,0-.3-.12.69.69,0,0,1-.13.15l-.19.13a.38.38,0,0,1,0,.31.21.21,0,0,1-.2.08.46.46,0,0,1-.19-.08l0-.07a.15.15,0,0,1,0-.09.25.25,0,0,1,.15-.21.28.28,0,0,1,.25,0,1.19,1.19,0,0,0,.21-.15h0a.31.31,0,0,0,.07-.09,2.37,2.37,0,0,0-.83-.07.46.46,0,0,1-.18.16.28.28,0,0,1-.18,0,.53.53,0,0,1-.22-.08.24.24,0,0,1-.09-.21.16.16,0,0,1,0-.1.32.32,0,0,1,.32-.1.55.55,0,0,1,.32.18l.22,0a.37.37,0,0,1,0-.15,1,1,0,0,1,0-.19h0a.29.29,0,0,1-.19-.16.17.17,0,0,1,.05-.18.34.34,0,0,1,.17-.08H47l.06,0a.23.23,0,0,1,.07.21.21.21,0,0,1-.13.17.81.81,0,0,0,0,.22h0a.28.28,0,0,0,0,.13,2.35,2.35,0,0,1,.53.09.69.69,0,0,0,0-.25v0h0a.32.32,0,0,1-.22-.24.28.28,0,0,1,0-.09.24.24,0,0,1,.09-.13.69.69,0,0,1,.15-.07h0a.18.18,0,0,1,.09,0,.27.27,0,0,1,.1.18.23.23,0,0,1-.1.2s-.05,0-.06.07v0a.33.33,0,0,0,0,.13.58.58,0,0,0,.28-.37.12.12,0,0,0,0-.08l0,0a.24.24,0,0,1-.05-.25.29.29,0,0,1,.2-.16.17.17,0,0,1,.12,0,.26.26,0,0,1,.14.3.34.34,0,0,1-.07.11.33.33,0,0,1-.1.06.11.11,0,0,1-.11,0,2.52,2.52,0,0,1-.12.29.44.44,0,0,1-.08.1.23.23,0,0,1-.13.07l0,0a.07.07,0,0,0,0,.06l.32.12.44.25c.08-.05.17-.2.08-.66h0v0a.38.38,0,0,1,.07-.27s.1-.08.12-.13l0-.05s.08,0,.12,0,.09-.07.15-.1a.41.41,0,0,1,.19,0s.1,0,.13,0,0,.05,0,.07.06.08.07.12,0,.09,0,.13,0,.08,0,.12,0,.05,0,.07,0,.08,0,.11,0,.05-.06.09,0,.09-.07.12a.28.28,0,0,1-.13,0s0,0,0,0l0,0-.06,0a1,1,0,0,0-.37.4,1.92,1.92,0,0,0,.72.39.53.53,0,0,0,.47-.23,3.27,3.27,0,0,1,.24-.27l-.07-.06a.27.27,0,0,1-.14.07.29.29,0,0,1-.16,0,.24.24,0,0,1-.12-.35.26.26,0,0,1,.23-.13.18.18,0,0,1,.17.06.58.58,0,0,1,.05.26s.07.09.09.13a2.3,2.3,0,0,1,.76-.55s0,0,0-.06a.05.05,0,0,0,0,0,.46.46,0,0,1-.14-.09l-.09-.1c-.14-.18-.12-.21-.18-.24s-.1,0-.18,0a.36.36,0,0,1-.09-.09.29.29,0,0,1,0-.16.21.21,0,0,1,.1-.15.35.35,0,0,1,.14,0,.28.28,0,0,1,.21.14.23.23,0,0,1,0,.24l0,0a.09.09,0,0,0,0,.08.64.64,0,0,0,.32.33.34.34,0,0,0,0-.14.06.06,0,0,0,0,0,.09.09,0,0,0-.06-.06.31.31,0,0,1-.13-.19.33.33,0,0,1,.08-.19.12.12,0,0,1,.08,0h.07l.14,0a.19.19,0,0,1,.1.12.31.31,0,0,1,0,.1.35.35,0,0,1-.2.26h0v0a.53.53,0,0,0,0,.25,2.44,2.44,0,0,1,.5-.13.4.4,0,0,0,0-.15h0a.49.49,0,0,0,0-.24c-.05-.07-.1,0-.14-.11a.2.2,0,0,1,0-.24.24.24,0,0,1,.13-.05.2.2,0,0,1,.17.06.21.21,0,0,1,0,.2c0,.08-.11.07-.14.14s0,.11,0,.22a.37.37,0,0,1,0,.17.41.41,0,0,0,.26,0c.13-.06.13-.17.26-.22a.28.28,0,0,1,.32.06.27.27,0,0,1,0,.32.3.3,0,0,1-.21.11c-.14,0-.2-.08-.39-.13a.91.91,0,0,0-.37,0,1.8,1.8,0,0,0-.44.16l.08.08h0a1.71,1.71,0,0,0,.23.12.25.25,0,0,1,.25,0,.27.27,0,0,1,.17.19s0,.06,0,.08a.43.43,0,0,1,0,.07.41.41,0,0,1-.19.12.21.21,0,0,1-.2-.06c-.07-.07,0-.21,0-.3s-.21-.1-.24-.11-.09-.08-.13-.14l-.09.05-.21.12a1.3,1.3,0,0,0-.21.16l.05.13c0,.15,0,.2,0,.28s.14.19.22.18a2.73,2.73,0,0,0,.4,0l.24,0h0l0,0a.31.31,0,0,1,.2-.11.3.3,0,0,1,.29,0,.36.36,0,0,1,.09.24.41.41,0,0,1-.16.33.25.25,0,0,1-.34,0c-.07-.1-.06-.26-.17-.31H51l-.41,0v.1a.46.46,0,0,1,.31.13.27.27,0,0,1,0,.26.32.32,0,0,1-.2.18.17.17,0,0,1-.14,0,.26.26,0,0,1-.15-.16.44.44,0,0,1,0-.32.14.14,0,0,0,0-.07.23.23,0,0,0-.08-.17s-.1-.08-.13-.06a.31.31,0,0,0-.1.15h0v0c.06.12.13.27,0,.39a.27.27,0,0,1-.23.09.27.27,0,0,1-.12-.06.3.3,0,0,1,.22-.47h0s0,0,0,0c.15-.33.06-.49.06-.49a.26.26,0,0,0-.07-.12,1.52,1.52,0,0,0-.46.83s0,1.55.06,1.92.11,1.94.11,1.94l.16-.1A2,2,0,0,1,50.29,15a.36.36,0,0,1,.07-.1l0,0a1.25,1.25,0,0,1,.23-.23,0,0,0,0,0,0,0s0,0,0,0,0,0-.06,0l-.06,0a.29.29,0,0,1-.18,0,.21.21,0,0,1-.09-.2.16.16,0,0,1,.16-.12.21.21,0,0,1,.11,0,.69.69,0,0,1,.11.13l0,.07v0l0,0,0,0h0l0,0,.16-.1.06,0h0s0-.08-.05-.09a.65.65,0,0,1,0-.2H50.8a.22.22,0,0,1-.15-.1.17.17,0,0,1,0-.17.19.19,0,0,1,.1-.11.16.16,0,0,1,.09,0l.08,0a.22.22,0,0,1,.1.18.22.22,0,0,1-.09.19s0,.18,0,.21h0l0,.06.13-.06.06,0a.53.53,0,0,1,.15-.05.52.52,0,0,1,.12-.13.18.18,0,0,1,.2,0l.06,0a.14.14,0,0,1,0,.14.22.22,0,0,1-.1.09.25.25,0,0,1-.11,0,.25.25,0,0,1-.14-.06h0a1,1,0,0,0-.29.09.26.26,0,0,0,.09,0h0l.22.07a.18.18,0,0,1,.17-.08.22.22,0,0,1,.17.12.19.19,0,0,1,0,.08l0,0a.37.37,0,0,1-.12.13.15.15,0,0,1-.17,0,.19.19,0,0,1-.06-.23l-.19-.05A.36.36,0,0,1,51,14.5a1.26,1.26,0,0,0-.28.19.18.18,0,0,0,.09.08l.07,0,.06,0a.21.21,0,0,1,.17,0,.18.18,0,0,1,.1.18.15.15,0,0,1-.26.09.43.43,0,0,1-.11-.12l0-.07a.11.11,0,0,0,0,0l0,0-.06,0-.14.17,0,.07a1.28,1.28,0,0,0-.09,1,5.56,5.56,0,0,0,1.17-.89c.27-.35.72-.69.65-1.4H52a.36.36,0,0,1-.24-.15.59.59,0,0,0-.1-.17l0,0s0-.1,0-.14,0-.12-.06-.19,0-.12,0-.19,0-.11.07-.12h.08c.05,0,.1,0,.15,0s.07,0,.11.06.09,0,.13,0a.15.15,0,0,1,.05.07s.08,0,.11.05a.53.53,0,0,1,.06.1s.08.05.11.1,0,.12,0,.17a.14.14,0,0,1,0,.06.29.29,0,0,1,0,.13.23.23,0,0,1-.07.15A2.12,2.12,0,0,1,52.24,15a2.79,2.79,0,0,0,1.59-.49.77.77,0,0,0-.21-.16.9.9,0,0,0-.42-.06h0s0,0,0,0a.23.23,0,0,1-.15.15.31.31,0,0,1-.35-.1.2.2,0,0,1,0-.15A.24.24,0,0,1,52.8,14c.14,0,.25.07.34.16l0,0h0s.14,0,.17,0,0-.11,0-.14a.26.26,0,0,0-.13-.14h-.07a.49.49,0,0,1-.31-.11.3.3,0,0,1-.1-.19.27.27,0,0,1,.07-.14.35.35,0,0,1,.23-.12.27.27,0,0,1,.23.12.49.49,0,0,1,0,.34l.09,0c.07-.12.14-.24.2-.36a.27.27,0,0,0,0-.12c0-.11-.16-.16-.23-.26a.26.26,0,0,1,.08-.33.38.38,0,0,1,.36,0,.34.34,0,0,1,.2.17.31.31,0,0,1,0,.29.35.35,0,0,1-.17.15h0l0,0c0,.07-.06.15-.1.22s-.18.22-.18.36a.36.36,0,0,0,.14.27.68.68,0,0,0,.35.19l0,0a1.07,1.07,0,0,0,.21-.22.56.56,0,0,0,0-.07.77.77,0,0,1,0-.12s0,0,0,0,0,0,0,0L54,13.77a.65.65,0,0,1-.08-.22.25.25,0,0,1,0-.17.22.22,0,0,1,.27-.12.27.27,0,0,1,.19.23.32.32,0,0,1-.08.25l-.06.06s-.07.06-.06.07a.17.17,0,0,0,0,.05l.06.11a3.26,3.26,0,0,0,.33-.73.62.62,0,0,0,0-.3l-.09-.15a1,1,0,0,0-.12-.14.4.4,0,0,1,0-.37.49.49,0,0,1,.14-.13.3.3,0,0,1,.29,0,.26.26,0,0,1,.13.27.48.48,0,0,1-.07.24s-.06.1-.08.15a2.1,2.1,0,0,0-.06.24h0l0,.18a.52.52,0,0,0,0,.11.6.6,0,0,0,.26.14h0a.39.39,0,0,1,.35-.05l.08.05a.23.23,0,0,1,.06.16.53.53,0,0,1,0,.17l0,0a.19.19,0,0,1-.09,0,.28.28,0,0,1-.22,0,.3.3,0,0,1-.11-.22.32.32,0,0,0,0-.09l0,0-.14,0a.61.61,0,0,0,.14.48s0,.05.07.05h0a.26.26,0,0,1,.24.11.32.32,0,0,1,0,.27.16.16,0,0,1-.08.1.25.25,0,0,1-.21,0,.27.27,0,0,1-.15-.09.65.65,0,0,1,0-.13.48.48,0,0,1,0-.12.2.2,0,0,1,.06-.11,2.75,2.75,0,0,1-.17-.29.61.61,0,0,1,0-.13.38.38,0,0,1,0-.15.06.06,0,0,0,0-.06l0,0a2.46,2.46,0,0,1-.45.81l-.1.12a.13.13,0,0,0,.07.09.16.16,0,0,0,.13,0l.09,0a.36.36,0,0,1,.27,0,.3.3,0,0,1,.15.29.25.25,0,0,1-.25.21.24.24,0,0,1-.16-.07c-.09-.07-.09-.13-.21-.3a.36.36,0,0,0-.11-.12l0,0a3.12,3.12,0,0,1-.53.43h0s0,0,0,0,0,0,.07,0l.07,0a.36.36,0,0,1,.23,0,.24.24,0,0,1,.12.24.22.22,0,0,1-.2.17.31.31,0,0,1-.28-.21s0-.12-.08-.17l0,0a2.67,2.67,0,0,1-1.63.49,10.12,10.12,0,0,0-1.19.93c-.24.28-.73.93-.73.93s.09,3.26.17,3.29a9.45,9.45,0,0,1,1.46-.47h.07a4.65,4.65,0,0,1,.07-.66h0a.64.64,0,0,0-.28.15l0,0v0a.37.37,0,0,1-.09.25.4.4,0,0,1-.45.09.24.24,0,0,1-.09-.15.3.3,0,0,1,.07-.3c.13-.13.32-.07.48,0h0a.79.79,0,0,0,.17-.14c0-.05-.06-.12-.09-.15a.28.28,0,0,0-.22-.08l-.09,0a.53.53,0,0,1-.39.06.33.33,0,0,1-.22-.16.37.37,0,0,1,0-.18.45.45,0,0,1,.2-.27.36.36,0,0,1,.32,0,.53.53,0,0,1,.21.36h.11a5,5,0,0,0,0-.53.28.28,0,0,0,0-.14c-.08-.13-.27-.09-.4-.16a.31.31,0,0,1-.11-.41.51.51,0,0,1,.39-.25.38.38,0,0,1,.31.07.39.39,0,0,1,.11.35.35.35,0,0,1-.11.26s0,0,0,0a0,0,0,0,0,0,0c0,.1,0,.2,0,.3s0,.33,0,.49a.27.27,0,0,0,.26.24,4.24,4.24,0,0,1,.8-1.7,0,0,0,0,0,0,0c0-.06-.06-.14-.12-.17l-.1,0a.4.4,0,0,1-.22-.14.46.46,0,0,1-.07-.16.24.24,0,0,1,.2-.24.29.29,0,0,1,.29.14.42.42,0,0,1,0,.33s0,.07,0,.1,0,0,0,.05l.07,0a3.5,3.5,0,0,1,.56-.54c0-.05,0-.12,0-.15l0,0a.36.36,0,0,1-.15-.08s0,0-.1-.1-.09-.29-.18-.35-.14,0-.23-.05a.32.32,0,0,1-.1-.12.28.28,0,0,1,0-.18.27.27,0,0,1,.15-.18.32.32,0,0,1,.14,0,.32.32,0,0,1,.24.17.3.3,0,0,1,0,.27.08.08,0,0,0,0,.05.16.16,0,0,0,0,.09.68.68,0,0,0,.35.41.29.29,0,0,0,0-.16v-.05a.19.19,0,0,0-.07-.08.29.29,0,0,1-.14-.23.36.36,0,0,1,.11-.22.12.12,0,0,1,.09-.05h.1a.27.27,0,0,1,.14.07.22.22,0,0,1,.11.14.2.2,0,0,1,0,.11.39.39,0,0,1-.24.29l0,0h0a.87.87,0,0,0,0,.32,3.39,3.39,0,0,1,.68-.35L54,16.4a.19.19,0,0,0,0-.07.19.19,0,0,0-.09-.11.47.47,0,0,1-.16-.37.37.37,0,0,1,.24-.31.29.29,0,0,1,.35.16.41.41,0,0,1,0,.22.48.48,0,0,1-.16.26.43.43,0,0,0-.09.1.6.6,0,0,0,0,.24l.11-.05.09,0a.43.43,0,0,1,.14,0l.08,0a.67.67,0,0,0,.12-.12,1,1,0,0,1,.23-.14.29.29,0,0,1,.32.06.33.33,0,0,1,.07.3.38.38,0,0,1-.09.18.39.39,0,0,1-.35.12.29.29,0,0,1-.22-.08s0-.05-.07-.06a.18.18,0,0,0-.13,0,3.52,3.52,0,0,0-.44.11l-.17.08a3.06,3.06,0,0,0-.61.35l.09.08.05,0a.13.13,0,0,0,.11-.05.38.38,0,0,1,.34,0,.3.3,0,0,1,.21.26.27.27,0,0,1-.21.26.3.3,0,0,1-.18,0,.44.44,0,0,1-.19-.19.53.53,0,0,0-.06-.1c-.06-.06-.16-.06-.25-.11a2.82,2.82,0,0,0-.33.36.81.81,0,0,1,.2.16c.11.12.12.2.22.26a.5.5,0,0,0,.28.06c.19,0,.21-.11.44-.23l.27-.13h0s0,0,0,0a.37.37,0,0,1,.18-.21.4.4,0,0,1,.36-.07.37.37,0,0,1,.21.25.51.51,0,0,1,0,.45.32.32,0,0,1-.42.1c-.12-.09-.18-.28-.32-.28A.23.23,0,0,0,54,18l-.45.24,0,.11a.67.67,0,0,1,.42,0,.32.32,0,0,1,.14.29.4.4,0,0,1-.14.29.34.34,0,0,1-.17.08.33.33,0,0,1-.24-.12.58.58,0,0,1-.13-.38.25.25,0,0,0,0-.09.27.27,0,0,0-.17-.16s-.14-.05-.17,0,0,.16-.06.21a0,0,0,0,0,0,0,0,0,0,0,0,0,0c.12.11.26.25.21.43a.31.31,0,0,1-.23.2.22.22,0,0,1-.18,0,.41.41,0,0,1-.13-.44.39.39,0,0,1,.19-.19l0,0a0,0,0,0,0,0,0,.69.69,0,0,0,0-.32.6.6,0,0,0-.16-.27.29.29,0,0,0-.2-.09l-.08.12a2.71,2.71,0,0,0-.23,2.19A4.39,4.39,0,0,0,54,19.54a2.56,2.56,0,0,0,1.35-1.79c.26-1.05.15.31.15.31a2.49,2.49,0,0,1,1.37-.31l0-.07a0,0,0,0,1,0,0,.43.43,0,0,0,0,0,.13.13,0,0,0,0-.06,0,0,0,0,0,0,0,.49.49,0,0,1,0-.11.58.58,0,0,1,0-.23A.3.3,0,0,1,57,17a.23.23,0,0,1,.29,0,.26.26,0,0,1,.07.29.32.32,0,0,1-.17.19l-.07,0s0,0-.08.07a.24.24,0,0,0,0,.17h0a4.4,4.4,0,0,1,1,.39.07.07,0,0,0,0-.06c0-.07-.12-.09-.19-.22l0-.07a2.38,2.38,0,0,1-.06-.37.16.16,0,0,1-.13,0l-.09-.1a.34.34,0,0,1-.05-.14.31.31,0,0,1,.05-.18.32.32,0,0,1,.2-.12.21.21,0,0,1,.13,0,.35.35,0,0,1,.18.23.29.29,0,0,1-.12.27l0,0a.13.13,0,0,0,0,.09.63.63,0,0,0,.22.49.41.41,0,0,0,.08-.13s0,0,0-.06a.41.41,0,0,0-.05-.09.29.29,0,0,1-.06-.25.3.3,0,0,1,.16-.17.14.14,0,0,1,.11,0h.07a.53.53,0,0,1,.14.12.26.26,0,0,1,.07.17.42.42,0,0,1,0,.1.39.39,0,0,1-.32.2h0a.91.91,0,0,0-.12.31.88.88,0,0,0,.21.12l.13,0a.67.67,0,0,1,.21.09.25.25,0,0,1,.11.24.32.32,0,0,1-.17.19.31.31,0,0,1-.41-.15.36.36,0,0,1-.05-.23.2.2,0,0,0,0-.07.19.19,0,0,0-.12-.1L57.43,18a.24.24,0,0,0,0,.13.13.13,0,0,0,.06.07c.06,0,.11,0,.19,0a.28.28,0,0,1,.19.15.32.32,0,0,1,0,.34.24.24,0,0,1-.31.08.27.27,0,0,1-.13-.13.73.73,0,0,1-.08-.25.57.57,0,0,1,0-.13v0a.19.19,0,0,0,0-.12.08.08,0,0,0,0,0L57.26,18l-.11,0-.26,0a1.52,1.52,0,0,1-.08.22c-.07.12-.11.14-.13.21a.32.32,0,0,0,.11.3l.4.16.25.11h.06a.43.43,0,0,1,.25,0,.36.36,0,0,1,.25.21.41.41,0,0,1,0,.29.48.48,0,0,1-.33.23.29.29,0,0,1-.31-.23c0-.13.09-.28,0-.38a.26.26,0,0,0-.11-.07l-.42-.17,0,.09a.51.51,0,0,1,.22.3.29.29,0,0,1-.11.26.36.36,0,0,1-.28.07.34.34,0,0,1-.15-.06.33.33,0,0,1,0-.24.52.52,0,0,1,.18-.3s0,0,.06-.06a.2.2,0,0,0,0-.2s0-.12-.09-.13a.65.65,0,0,0-.17.08h0v0c0,.14,0,.32-.17.39a.29.29,0,0,1-.27,0,.2.2,0,0,1-.09-.13A.35.35,0,0,1,56,18.5a.29.29,0,0,1,.24,0h.06a.89.89,0,0,0,.35-.44.65.65,0,0,0,0-.17,1.82,1.82,0,0,0-.62.16,2.29,2.29,0,0,0-.86.73,5.5,5.5,0,0,0-.64.95,2.93,2.93,0,0,0,.44-.17h0l0,0a.52.52,0,0,1,.39,0c.12.06.1.08.23.12a.42.42,0,0,1,.13.07s0,.07,0,.12.12.07.2.17a.57.57,0,0,1,.08.26c0,.06,0,.14,0,.19s-.08,0-.1,0-.09.11-.15.14-.12,0-.18,0-.11.06-.17.06l-.11,0s-.1,0-.16,0-.09,0-.13-.06a.65.65,0,0,1-.2-.05s-.07-.1-.1-.15l0-.05-.06-.05a.18.18,0,0,1,0-.08,1.29,1.29,0,0,0-.44-.29,7.28,7.28,0,0,1-2.25.7,2.69,2.69,0,0,0-.46.14A1.7,1.7,0,0,0,52.41,22a.81.81,0,0,0,0-.31h0a.41.41,0,0,1-.22-.32.2.2,0,0,1,0-.11.27.27,0,0,1,.13-.13.47.47,0,0,1,.15-.06h.09s.07,0,.09.06a.28.28,0,0,1,.09.23.31.31,0,0,1-.15.22.13.13,0,0,0-.08.07s0,0,0,.05a.41.41,0,0,0,0,.16.69.69,0,0,0,.39-.38.13.13,0,0,0,0-.09l0,0a.28.28,0,0,1,0-.29.35.35,0,0,1,.26-.15.2.2,0,0,1,.13,0,.29.29,0,0,1,.13.19.25.25,0,0,1,0,.19.2.2,0,0,1-.11.1.07.07,0,0,1-.06,0,1.36,1.36,0,0,1-.18,0c-.09,0-.09.15-.23.34l-.1.09a.4.4,0,0,1-.11.06c-.05,0-.07,0-.08,0s0,.08,0,.09l.08,0a1.86,1.86,0,0,0,.53.13.39.39,0,0,0,.12-.23v-.11a.51.51,0,0,1,0-.22.25.25,0,0,1,.11-.12.22.22,0,0,1,.27.08.24.24,0,0,1,0,.29.32.32,0,0,1-.27.13s-.07,0-.1,0,0,0,0,.07,0,.08,0,.11a2.23,2.23,0,0,0,.54-.06.55.55,0,0,0,.12-.25v-.1a.78.78,0,0,1,0-.22.43.43,0,0,1,.11-.12.25.25,0,0,1,.28.08.29.29,0,0,1,0,.3A.34.34,0,0,1,54,22s-.07,0-.1,0a.06.06,0,0,0,0,0,.18.18,0,0,0,0,.09.64.64,0,0,0,.21,0,.51.51,0,0,0,.16-.12l.07-.08a.69.69,0,0,1,.13-.11.19.19,0,0,1,.19,0,.24.24,0,0,1,.07.18.19.19,0,0,1-.09.16.37.37,0,0,1-.26,0l-.09,0a.44.44,0,0,0-.25.08l0,0a.67.67,0,0,0,.24.07h.06l.05,0a.51.51,0,0,1,.26-.09.23.23,0,0,1,.21.14.22.22,0,0,1,0,.16.61.61,0,0,1-.07.14.27.27,0,0,1-.45-.22l-.24-.09A.4.4,0,0,1,54,22.3l-.23,0v0a.78.78,0,0,0,0,.34v0h0a.43.43,0,0,1,.22.32.41.41,0,0,1,0,.1.3.3,0,0,1-.3.19.31.31,0,0,1-.16-.06.28.28,0,0,1-.09-.23.32.32,0,0,1,.16-.22s.06,0,.07-.07,0,0,0-.06a.26.26,0,0,0,0-.15.68.68,0,0,0-.39.37s0,.07,0,.1,0,0,0,0a.28.28,0,0,1,0,.29.33.33,0,0,1-.25.15.25.25,0,0,1-.13,0,.27.27,0,0,1-.14-.19.25.25,0,0,1,.12-.29.52.52,0,0,1,.2-.08c.14-.05.11-.15.28-.28s.26-.11.28-.21,0-.06,0-.07a3.67,3.67,0,0,1-.79,0,.49.49,0,0,0,0,.2.54.54,0,0,1,0,.26.19.19,0,0,1-.13.14.2.2,0,0,1-.25-.08s0-.05,0-.08a.33.33,0,0,1,.15-.28l.15-.08s.08,0,.09-.1a1.92,1.92,0,0,1-.55-.2,4.37,4.37,0,0,1-1.16-1c-.55.33-1,.78-1,1.11,0,.15,0,.66,0,.66,0,.16,0,.32,0,.5" transform="translate(-8.35 -1.66)"/><path class="cls-2" d="M49.42,3.4a17,17,0,1,0,17,17A17,17,0,0,0,49.42,3.4ZM59.89,9.57a.77.77,0,1,1-.77.76A.77.77,0,0,1,59.89,9.57Zm-21,.22a.77.77,0,1,1-.76.77A.76.76,0,0,1,38.86,9.79Zm10.8,22.38A11.76,11.76,0,1,1,61.42,20.42,11.75,11.75,0,0,1,49.66,32.17Z" transform="translate(-8.35 -1.66)"/><path class="cls-1" d="M45.11,33.37l.11.24.09,0,.11-.06.11,0h0s0,0,0,.1v1.93c0,.07,0,.13,0,.17s0,.05,0,.06l-.05,0h-.28V36h.89V33h-.19l-.78.39Z" transform="translate(-8.35 -1.66)"/><path class="cls-1" d="M48.56,33.42a1,1,0,0,0-.3-.31.84.84,0,0,0-.45-.12.77.77,0,0,0-.4.1.91.91,0,0,0-.3.25,1.25,1.25,0,0,0-.26.74,1,1,0,0,0,0,.33.85.85,0,0,0,.15.3.72.72,0,0,0,.25.21.7.7,0,0,0,.43.08c.29-.09.39-.47.39-.47h0l-.15.08a.35.35,0,0,1-.32,0,.7.7,0,0,1-.15-.19,1.06,1.06,0,0,1-.09-.25,1.22,1.22,0,0,1,0-.26,1,1,0,0,1,0-.23.5.5,0,0,1,.08-.2.5.5,0,0,1,.14-.15.36.36,0,0,1,.19,0,.19.19,0,0,1,.12,0,.52.52,0,0,1,.11.1s.05.11.08.17a1.94,1.94,0,0,1,0,.2l0,.2c0,.07,0,.13,0,.18s0,.15,0,.21,0,.1,0,.15-.1.38-.1.38A.37.37,0,0,1,48,35a2,2,0,0,1-.26.42,1.24,1.24,0,0,1-.36.29.79.79,0,0,1-.42.12h-.09v.26h.18a1.53,1.53,0,0,0,.67-.15,2,2,0,0,0,.54-.41,1.9,1.9,0,0,0,.37-.59,1.81,1.81,0,0,0,.14-.69,1.52,1.52,0,0,0-.06-.42,1.47,1.47,0,0,0-.19-.4Z" transform="translate(-8.35 -1.66)"/><path class="cls-1" d="M53.5,33.42a1,1,0,0,0-.31-.31.88.88,0,0,0-.85,0,.91.91,0,0,0-.3.25,1.25,1.25,0,0,0-.26.74,1.26,1.26,0,0,0,0,.33,1.08,1.08,0,0,0,.16.3.64.64,0,0,0,.25.21.67.67,0,0,0,.43.08c.28-.09.38-.47.38-.47h0l-.15.08a.38.38,0,0,1-.33,0,.7.7,0,0,1-.15-.19,1.06,1.06,0,0,1-.09-.25,1.22,1.22,0,0,1,0-.26,1,1,0,0,1,0-.23.5.5,0,0,1,.08-.2.5.5,0,0,1,.14-.15.35.35,0,0,1,.18,0,.2.2,0,0,1,.13,0l.1.1a.53.53,0,0,1,.08.17c0,.07,0,.14.06.2l0,.2v.39s0,.1,0,.15-.1.38-.1.38A1.17,1.17,0,0,1,53,35a1.68,1.68,0,0,1-.27.42,1.21,1.21,0,0,1-.35.29.79.79,0,0,1-.42.12h-.1v.26H52a1.56,1.56,0,0,0,.67-.15,2.14,2.14,0,0,0,.54-.41,2.1,2.1,0,0,0,.37-.59,1.8,1.8,0,0,0,.13-.69,2,2,0,0,0,0-.42,1.44,1.44,0,0,0-.18-.4Z" transform="translate(-8.35 -1.66)"/><path class="cls-1" d="M50.77,34.65a1.75,1.75,0,0,0-.24-.23l-.16-.13-.06,0h0l-.18-.15L50,33.94a1,1,0,0,1-.12-.17.33.33,0,0,1,0-.17.32.32,0,0,1,0-.14l.08-.12.12-.08.12,0a.35.35,0,0,1,.17,0,.52.52,0,0,1,.24.24.53.53,0,0,1,0,.17.44.44,0,0,1,0,.13l0,.09-.1.27a.56.56,0,0,0,.38-.1h0A.48.48,0,0,0,51,33.9a.54.54,0,0,0,0-.22.58.58,0,0,0-.06-.26.76.76,0,0,0-.17-.23A.92.92,0,0,0,50.5,33a1.09,1.09,0,0,0-.67,0,1,1,0,0,0-.28.14.88.88,0,0,0-.19.24.71.71,0,0,0-.07.32.65.65,0,0,0,.05.29,1,1,0,0,0,.13.23l.18.18.1.09a.39.39,0,0,0-.1.08.9.9,0,0,0-.2.19,1.76,1.76,0,0,0-.14.23.64.64,0,0,0-.06.28,1.07,1.07,0,0,0,0,.21.94.94,0,0,0,.14.26.76.76,0,0,0,.28.21.82.82,0,0,0,.44.1,1,1,0,0,0,.34-.06,1,1,0,0,0,.28-.16.75.75,0,0,0,.21-.26.78.78,0,0,0,.08-.35.63.63,0,0,0-.09-.33,1.13,1.13,0,0,0-.2-.26Zm-.23.93a.64.64,0,0,1-.1.13.38.38,0,0,1-.13.09.35.35,0,0,1-.33,0,.33.33,0,0,1-.14-.12.38.38,0,0,1-.09-.18.48.48,0,0,1,0-.2.6.6,0,0,1,.1-.32,1.14,1.14,0,0,1,.2-.23c.09.08.18.14.25.21a1.14,1.14,0,0,1,.19.2.56.56,0,0,1,.1.15.36.36,0,0,1,0,.14.31.31,0,0,1,0,.15Z" transform="translate(-8.35 -1.66)"/><path class="cls-1" d="M35.67,25.32l.93-1.27-.24-.74-.23.07,0,.09a.62.62,0,0,1,0,.19.45.45,0,0,1,0,.16.5.5,0,0,1-.08.14.88.88,0,0,1-.12.17l-.39.54a.71.71,0,0,0-.07-.09.65.65,0,0,0-.21-.16.63.63,0,0,0-.23-.08.54.54,0,0,0-.28,0,.66.66,0,0,0-.18.1.49.49,0,0,0-.19.21.8.8,0,0,0-.09.33,1.17,1.17,0,0,0,.07.46l.35,1.06.23-.07,0-.09a.61.61,0,0,1,0-.17.05.05,0,0,1,0-.05.13.13,0,0,1,.07,0l.17-.06,1.92-.63-.17-.5-1.21.41Zm-.7.22a.41.41,0,0,1-.16,0l-.07,0,0,0a.31.31,0,0,1,0-.08.55.55,0,0,1,0-.16.38.38,0,0,1,.05-.15.31.31,0,0,1,.09-.11.36.36,0,0,1,.15-.08l.17,0h0a.34.34,0,0,1,.16.06.49.49,0,0,1,.12.13,1.08,1.08,0,0,1,.08.19l0,.08-.57.19Z" transform="translate(-8.35 -1.66)"/><path class="cls-1" d="M36.24,22.3l-.24,0v.18a.17.17,0,0,1,0,.07s0,0,0,0h-.11l-.13,0-.29-.09-.09-.79.76-.42-.06-.51-2.49,1.33,0,.19,2.74.84-.1-.82Zm-1.78-.12.6-.34.07.54Z" transform="translate(-8.35 -1.66)"/><path class="cls-1" d="M34.32,20.23l-.07,0a.87.87,0,0,1-.27-.12.46.46,0,0,1-.1-.39l0-.71,2,1.62h.19l.15-2.1-.8-.2v.24l.06,0,.2.1a.36.36,0,0,1,.11.13.66.66,0,0,1,0,.23,2.88,2.88,0,0,1,0,.42l0,.42-2.12-1.73-.16,2.2.79.15v-.28Z" transform="translate(-8.35 -1.66)"/><path class="cls-1" d="M34.11,17.56a1.2,1.2,0,0,0,.35.36,1.23,1.23,0,0,0,.49.22,1.49,1.49,0,0,0,.36.05h.17A1.3,1.3,0,0,0,36,18a1.14,1.14,0,0,0,.37-.32,1.28,1.28,0,0,0,.21-.46,1.21,1.21,0,0,0,0-.5,1.17,1.17,0,0,0-.17-.45,1.29,1.29,0,0,0-.34-.36,1.34,1.34,0,0,0-.5-.22,1.39,1.39,0,0,0-.53,0,1.37,1.37,0,0,0-.47.16,1.14,1.14,0,0,0-.37.32,1.28,1.28,0,0,0-.21.46,1.2,1.2,0,0,0,0,.5,1.08,1.08,0,0,0,.17.45Zm.14-.88a.87.87,0,0,1,.14-.27.65.65,0,0,1,.24-.19,1.2,1.2,0,0,1,.35-.08h.07a1.69,1.69,0,0,1,.38,0,1.41,1.41,0,0,1,.41.17,1,1,0,0,1,.28.24.68.68,0,0,1,.13.27.8.8,0,0,1,0,.31.87.87,0,0,1-.14.27.65.65,0,0,1-.24.19,1.2,1.2,0,0,1-.35.08,1.48,1.48,0,0,1-.45-.05,1.41,1.41,0,0,1-.41-.17,1.11,1.11,0,0,1-.28-.23.63.63,0,0,1-.12-.28A.76.76,0,0,1,34.25,16.68Z" transform="translate(-8.35 -1.66)"/><path class="cls-1" d="M43.54,5.7l.09,1.88L42.24,6.3l-.64.3.1.22.08,0a.2.2,0,0,1,.1,0l.1,0,.1.07.11.09,1.64,1.5L44,8.38l-.12-2.83-.34.15Z" transform="translate(-8.35 -1.66)"/><path class="cls-1" d="M46.46,6.69v.07c0,.09,0,.16,0,.22a.5.5,0,0,1,0,.13.24.24,0,0,1-.08.09l-.16.07-.27.07a.39.39,0,0,1-.2,0l-.1-.05a.2.2,0,0,1-.06-.09.61.61,0,0,1,0-.11l-.15-.53.56-.15H46a.24.24,0,0,1,0,.08l0,.09.24-.06-.18-.66L45.91,6l0,.09v0l0,0a.23.23,0,0,1-.1,0l-.55.15-.2-.74.5-.13a.88.88,0,0,1,.2,0h.1a.16.16,0,0,1,.08.06.63.63,0,0,1,.1.17l0,.07.24-.07-.23-.67-1.94.52.07.24.09,0a.48.48,0,0,1,.17,0h.05a.43.43,0,0,1,0,.07s0,.1,0,.17l.52,1.95,1.62-.43,0-.8-.26.07Z" transform="translate(-8.35 -1.66)"/><path class="cls-1" d="M46.92,5.16s0,.11,0,.18l.2,2,.52,0L47.53,6l1,1.19.77-.08,0-.24h-.08a.55.55,0,0,1-.19,0,.39.39,0,0,1-.15-.06.69.69,0,0,1-.13-.11l-.14-.16L48.19,6A.3.3,0,0,0,48.3,6a.7.7,0,0,0,.19-.15.71.71,0,0,0,.13-.22.61.61,0,0,0,0-.27.58.58,0,0,0,0-.21.48.48,0,0,0-.16-.22.86.86,0,0,0-.3-.16,1.16,1.16,0,0,0-.47,0l-1.12.11,0,.24h.26s0,0,0,0a.24.24,0,0,1,0,.07Zm.55,0a.14.14,0,0,1,0-.07l.05,0,.08,0h.16a.46.46,0,0,1,.14.07,1.25,1.25,0,0,1,.09.12.47.47,0,0,1,0,.16.5.5,0,0,1,0,.22.3.3,0,0,1-.09.13.51.51,0,0,1-.16.09.65.65,0,0,1-.19,0h-.09l-.06-.61a.23.23,0,0,1,0-.13Z" transform="translate(-8.35 -1.66)"/><path class="cls-1" d="M52,6.09a1.6,1.6,0,0,0,0-.31,1,1,0,0,0-.07-.29,1.43,1.43,0,0,0-.13-.28A1.51,1.51,0,0,0,51.59,5a1.38,1.38,0,0,0-.24-.14,1.34,1.34,0,0,0-.26-.09l-.27,0-.26,0-1-.09,0,.24h.09l.17,0,.05,0a.17.17,0,0,1,0,.08,1.21,1.21,0,0,1,0,.18l-.19,2,.85.08h.2a1.7,1.7,0,0,0,.41,0A1.26,1.26,0,0,0,51.57,7a1.14,1.14,0,0,0,.3-.39A1.54,1.54,0,0,0,52,6.09Zm-.58,0a2.22,2.22,0,0,1-.09.37,1,1,0,0,1-.2.29.68.68,0,0,1-.28.18.88.88,0,0,1-.37,0l-.17,0-.11,0,.14-1.5a.57.57,0,0,1,.07-.24A.23.23,0,0,1,50.52,5a.25.25,0,0,1,.13,0A.89.89,0,0,1,51,5.1a.69.69,0,0,1,.25.23.83.83,0,0,1,.13.32A1.76,1.76,0,0,1,51.42,6.05Z" transform="translate(-8.35 -1.66)"/><path class="cls-1" d="M53.47,5.12l-1.8,2.23.8.22.07-.24-.08,0a.16.16,0,0,1-.09,0l-.06,0,0,0v0l.05-.08.07-.1.19-.24.77.21.1.86L54,8l-.31-2.8-.19,0Zm-.66,1.39L53.24,6l.1.69Z" transform="translate(-8.35 -1.66)"/><path class="cls-1" d="M56.73,6.68a1.73,1.73,0,0,0-.17-.21,1.24,1.24,0,0,0-.22-.18l-.23-.13L55.88,6,55,5.61l-.1.22.08,0,.15.08a.09.09,0,0,1,0,0,.12.12,0,0,1,0,.08,1.47,1.47,0,0,0-.07.17l-.88,1.82.78.37a1.62,1.62,0,0,0,.59.17h.1A1.07,1.07,0,0,0,56,8.54a1,1,0,0,0,.42-.26,1.38,1.38,0,0,0,.29-.41,1.33,1.33,0,0,0,.1-.28,1.54,1.54,0,0,0,0-.3,1.06,1.06,0,0,0,0-.31A1.57,1.57,0,0,0,56.73,6.68Zm-.41.57a1.3,1.3,0,0,1-.11.37,1.21,1.21,0,0,1-.22.32.83.83,0,0,1-.28.21.72.72,0,0,1-.33.07A.87.87,0,0,1,55,8.13L54.87,8,54.78,8l.65-1.36a.47.47,0,0,1,.15-.2.19.19,0,0,1,.13-.06.29.29,0,0,1,.13,0,.93.93,0,0,1,.31.23.61.61,0,0,1,.15.3.69.69,0,0,1,0,.35Z" transform="translate(-8.35 -1.66)"/><path class="cls-1" d="M64.15,14.87l-1.88.06,1.31-1.37-.29-.65-.22.1,0,.08a.2.2,0,0,1,0,.1.25.25,0,0,1,0,.09.33.33,0,0,1-.06.1l-.1.11-1.52,1.62.07.17,2.83-.08-.14-.33Z" transform="translate(-8.35 -1.66)"/><path class="cls-1" d="M64.36,15.54l-2.45.75.15.5L64.51,16Z" transform="translate(-8.35 -1.66)"/><path class="cls-1" d="M64.42,16.47a.76.76,0,0,1,0,.17.08.08,0,0,1,0,.06l-.07,0-.18,0-2,.37.09.51,1.27-.23-1.1,1.13.14.77.23-.05v-.08a1.15,1.15,0,0,1,0-.19.66.66,0,0,1,0-.15.71.71,0,0,1,.1-.14l.14-.16.47-.47a.27.27,0,0,0,.06.1.77.77,0,0,0,.18.18.76.76,0,0,0,.22.11.66.66,0,0,0,.28,0,1,1,0,0,0,.2-.07.54.54,0,0,0,.21-.19.68.68,0,0,0,.14-.31,1.51,1.51,0,0,0,0-.47l-.2-1.1-.25,0v.09Zm.09.89a.31.31,0,0,1,0,.08.49.49,0,0,1,0,.17.42.42,0,0,1-.06.14l-.11.1-.16,0a.41.41,0,0,1-.22,0l-.15-.08a1,1,0,0,1-.1-.15,1.33,1.33,0,0,1,0-.19l0-.08.6-.11a.43.43,0,0,1,.15,0l.07,0a.05.05,0,0,1,0,.05Z" transform="translate(-8.35 -1.66)"/><path class="cls-1" d="M64.32,19.25h.07c.24,0,.31.1.33.13a.59.59,0,0,1,.07.35v.11l-2.23,0v.55l2.23-.05v.11c0,.25,0,.33-.06.35s-.08.08-.32.14l-.07,0v.25l.8,0,0-2.21-.79,0v.26Z" transform="translate(-8.35 -1.66)"/><path class="cls-1" d="M64.88,21.67c0,.09,0,.14,0,.17s0,0,0,0a.13.13,0,0,1-.09,0l-.17,0-1.07-.17a2.17,2.17,0,0,0-.36,0,.89.89,0,0,0-.35.11.81.81,0,0,0-.27.28,1.35,1.35,0,0,0-.16.48,1.21,1.21,0,0,0,0,.51.75.75,0,0,0,.19.35.69.69,0,0,0,.3.2,1,1,0,0,0,.33.09l1.59.25.06-.33-1.42-.22-.16,0-.15,0L63,23.3a.41.41,0,0,1-.11-.07.49.49,0,0,1-.15-.27.87.87,0,0,1,0-.32l0-.15a.57.57,0,0,1,.08-.13.45.45,0,0,1,.1-.09.46.46,0,0,1,.14-.05h.37l.12,0,1.49.22.13-.85-.25,0v.09Z" transform="translate(-8.35 -1.66)"/><path class="cls-1" d="M64.43,24.37a.41.41,0,0,1-.07.15.12.12,0,0,1,0,0,.11.11,0,0,1-.08,0l-.18-.06-1.9-.66-.28.82a1.46,1.46,0,0,0-.1.6,1.19,1.19,0,0,0,.12.5,1,1,0,0,0,.31.38,1.36,1.36,0,0,0,.44.25l.29.07h.31a1.36,1.36,0,0,0,.29-.06,1.12,1.12,0,0,0,.28-.16,1.19,1.19,0,0,0,.2-.19c0-.08.1-.16.14-.24a1.89,1.89,0,0,0,.11-.25,2.44,2.44,0,0,0,.1-.24l.33-1-.24-.08,0,.09Zm-.4.95a.87.87,0,0,1-.19.33.73.73,0,0,1-.28.19.76.76,0,0,1-.34.05,1.34,1.34,0,0,1-.39-.07,1.11,1.11,0,0,1-.34-.18,1,1,0,0,1-.24-.25,1.1,1.1,0,0,1-.11-.32,1,1,0,0,1,0-.37l.07-.16a.93.93,0,0,1,.05-.1l1.42.5a.41.41,0,0,1,.22.12.3.3,0,0,1,.08.12.33.33,0,0,1,0,.14Z" transform="translate(-8.35 -1.66)"/><path class="cls-1" d="M35.55,13.06l.05-.14,0,0-.18-.08-.15.34-.13.26,1.42.62-1.89.52h0v0l-.14.31,2.36,1,.16-.37L35.9,15l-.35-.15,2.06-.58h0l.1-.21-2.12-.94s-.09,0-.06-.1Z" transform="translate(-8.35 -1.66)"/></svg>